<svg xmlns="http://www.w3.org/2000/svg" width="64" height="64" fill="none" viewBox="0 0 64 64">
  <style>
    path {
      fill: #0c0c0c;
    }
    @media (prefers-color-scheme: dark) {
      path { fill: #fcfcfc; }
    }
  </style>
  <path d="m44.796 30.059 9.435-8.824c.825-.706 1.415-1.647 1.415-2.823 0-1.765-1.415-3.412-3.42-3.412-1.18 0-2.123.588-3.184 1.412l-12.973 12.94V19.119c0-2.118-1.533-3.647-3.656-3.647H20.619c-4.245 0-7.666 1.176-9.788 3.411C8.943 20.765 8 23.352 8 26.53c0 5.294 2.595 8.471 6.722 10.118l-5.189 6.235c-.707.942-1.18 1.647-1.18 2.706 0 2.118 1.77 3.412 3.539 3.412 1.651 0 2.83-.824 3.656-2l7.194-9.176h5.779v7.294c0 2.117 1.533 3.647 3.656 3.647s3.656-1.53 3.656-3.647V37.94l3.538-3.294 9.67 12.588C49.868 48.412 50.694 49 52.227 49 54.349 49 56 47.47 56 45.47c0-1.176-.354-1.882-.944-2.588L44.797 30.06Zm-16.157 1.53H21.09c-3.538 0-5.661-2-5.661-4.707 0-3.176 2.24-4.706 5.779-4.706h7.43v9.412Z"/>
</svg>