<svg class="logo-svg" width="76" xmlns="http://www.w3.org/2000/svg" viewBox="0 0 107 66"><g fill="#121722"><path d="M91 41a3 3 0 1 0 0 6 3 3 0 0 0 0-6"/><path d="M87.628 53.59c-9.157 5.122-21.28 7.943-34.136 7.943-12.855 0-24.978-2.82-34.135-7.943C9.763 48.223 4.479 40.933 4.479 33.066c0-7.869 5.284-15.158 14.878-20.525 9.157-5.123 21.28-7.944 34.135-7.944 12.856 0 24.98 2.821 34.136 7.944 9.593 5.367 14.878 12.656 14.878 20.525 0 7.867-5.285 15.157-14.878 20.524m14.308-34.803c-2.924-3.867-7-7.28-12.116-10.141C80.004 3.155 67.103.131 53.492.131c-13.61 0-26.511 3.024-36.327 8.515-5.116 2.862-9.193 6.274-12.116 10.141C1.746 23.157 0 28.093 0 33.066c0 4.971 1.746 9.908 5.049 14.277 2.923 3.868 7 7.28 12.116 10.142C26.981 62.976 39.882 66 53.492 66c13.611 0 26.512-3.024 36.328-8.515 5.116-2.862 9.192-6.274 12.116-10.142 3.303-4.369 5.05-9.306 5.05-14.277 0-4.973-1.747-9.91-5.05-14.279"/><path d="M74.89 13.097c-3.8-1.16-7.89-2.01-12.164-2.522.241 4.795.057 15.071-3.196 15.071-3.117 0-3.486-10.176-3.27-15.582A84.568 84.568 0 0 0 52.972 10c-3.399 0-6.738.204-9.972.6 2.323 5.793 6.505 20.243 4.653 46.234 1.96.166 5.73.167 5.935.166-.274-3.913-1.154-19.755 2.572-19.755 3.668 0 2.843 15.351 2.548 19.562a79.747 79.747 0 0 0 4.696-.462c-.25-3.433-1.257-20.002 2.554-20.002 3.56 0 2.888 14.457 2.575 19.16A66.684 66.684 0 0 0 75 53.874c-3.767-20.332-1.322-35.318-.11-40.776M35 31.693c-2.164 0-3.917-1.732-3.917-3.867 0-2.137 1.753-3.869 3.917-3.869 2.163 0 3.917 1.732 3.917 3.869 0 2.135-1.754 3.867-3.917 3.867M34.98 12c-5.015 0-10.52 11.49-8.58 39.696 2.6 1.061 6.072 2.104 6.072 2.104s-1.498-16.686 2.516-16.686c4.013 0 2.564 17.927 2.564 17.927 2.733.585 5.97.959 5.97.959 2.053-28.653-2.83-44-8.542-44M9 33.29c0 6.102 4.397 11.947 12.382 16.459.15.085.303.168.456.251-.24-4.884-.27-9.53-.108-13.835a4.243 4.243 0 0 1-2.219.628c-2.37 0-4.29-1.934-4.29-4.321 0-2.387 1.92-4.322 4.29-4.322 1.018 0 1.952.359 2.688.955C22.755 23.415 23.707 18.598 25 15a46.442 46.442 0 0 0-3.618 1.833C13.397 21.345 9 27.189 9 33.29m78.215-.056c-2.21 0-4-1.747-4-3.903 0-2.155 1.79-3.903 4-3.903 2.209 0 4 1.748 4 3.903 0 2.156-1.791 3.903-4 3.903m10.458-3.994c-1.468-4.64-5.62-8.983-12.053-12.505A49.95 49.95 0 0 0 79.7 14c-.43 2.042-.996 5.284-1.353 9.496C77.8 29.938 77.65 39.946 79.82 52a49.931 49.931 0 0 0 5.8-2.688c.284-.155.563-.314.84-.473-2.299-7.472-.797-9.825 2.296-10.414 3.387-.646 10.896-1.29 8.917-9.185"/></g></svg>