<svg width="90" viewBox="0 0 375.07 124.33" class="fite-svg"><path d="M303.43 0h-53.22a2 2 0 0 0-2 2v5a2.26 2.26 0 0 0 2.36 2.39l18.15.56a2 2 0 0 1 1.94 2v108.4a2.23 2.23 0 0 0 2.33 2.39h7.67a2 2 0 0 0 2-2V12a2 2 0 0 1 1.94-2l18.49-.56a2.25 2.25 0 0 0 2.34-2.39V2a2 2 0 0 0-2-2zM373.47 112.91a3.05 3.05 0 0 0-.9-.13h-36.5a2 2 0 0 1-2-2V66.61a2 2 0 0 1 2-2h28.31a2 2 0 0 0 2-2v-6a2 2 0 0 0-2-2h-28.31a2 2 0 0 1-2-2V11.93a2 2 0 0 1 2-2h35a2 2 0 0 0 2-2V2a2 2 0 0 0-2-2h-56.86a2 2 0 0 0-2 2v4.88a2.38 2.38 0 0 0 2.25 2.46l5.71.31a2 2 0 0 1 1.9 2v109.09a2 2 0 0 0 2 2h49a2 2 0 0 0 2-2v-5.87a2 2 0 0 0-1.6-1.96zM239.4 0h-17.86a2 2 0 0 0-2 2v4.89a2.37 2.37 0 0 0 2.24 2.45l5.73.33a2 2 0 0 1 1.89 2v109.11a2 2 0 0 0 2 2h8a2 2 0 0 0 2-2V2a2 2 0 0 0-2-2zM210.69 0h-57.11a2 2 0 0 0-2 2v4.89a2.37 2.37 0 0 0 2.24 2.45l5.73.33a2 2 0 0 1 1.88 2V84.18a.62.62 0 0 0 0 .13c.15 24.17 3.62 33.27 14.22 37.36h.09a16.15 16.15 0 0 0 5.62 1 12.67 12.67 0 0 0 3.31-.42 2.43 2.43 0 0 0 2.16-2.45l.71-4.87a2.4 2.4 0 0 0-2.19-2.64.75.75 0 0 0-.26 0 8.66 8.66 0 0 1-4.29-.5c-5.57-2.33-7.29-9-7.38-28.63V67.62a.35.35 0 0 1 .35-.35h28.94a2 2 0 0 0 2-2v-6a2 2 0 0 0-2-2h-28.92a.35.35 0 0 1-.35-.34V10.27a.35.35 0 0 1 .35-.34h36.9a2 2 0 0 0 2-2V2a2 2 0 0 0-2-2zM122.19 13.57h-5.91a2 2 0 0 0-2 2V44.4a2 2 0 0 1-2 2H103c.1-.24.2-.47.28-.69l.07-.16a14.23 14.23 0 0 0 .92-5 10.92 10.92 0 0 0-.35-2.88 2.81 2.81 0 0 0-2.73-2.49l-4.15-.6a2.84 2.84 0 0 0-3 2.5 1.49 1.49 0 0 0 0 .42 6.47 6.47 0 0 1-.37 3.21c-1.41 3.29-4.99 4.79-13.3 5.38A2 2 0 0 1 78.24 44c.59-8.31 2.09-11.89 5.38-13.27a6.51 6.51 0 0 1 3.19-.36 1.56 1.56 0 0 0 .43 0 2.84 2.84 0 0 0 2.49-3.12l-.58-4a2.81 2.81 0 0 0-2.41-2.78 13.58 13.58 0 0 0-8 .55l-.11.05-.73.3v-9.32a2 2 0 0 1 2-2h28.83a2 2 0 0 0 2-2V2.14a2 2 0 0 0-2-2h-93.3a2 2 0 0 0-2 2v5.91a2 2 0 0 0 2 2h28.83a2 2 0 0 1 2 2v9.27L45.5 21h-.09a14.23 14.23 0 0 0-5-.92 10.92 10.92 0 0 0-2.88.35 2.81 2.81 0 0 0-2.49 2.73l-.6 4.15a2.82 2.82 0 0 0 2.5 3 1.2 1.2 0 0 0 .42 0 6.47 6.47 0 0 1 3.21.37C43.86 32.07 45.36 35.65 46 44a2 2 0 0 1-2.13 2.13c-8.36-.63-11.94-2.13-13.32-5.42a6.51 6.51 0 0 1-.36-3.19 1.56 1.56 0 0 0 0-.43 2.83 2.83 0 0 0-3.12-2.49l-4 .58a2.81 2.81 0 0 0-2.78 2.41 11.24 11.24 0 0 0-.37 3 14.26 14.26 0 0 0 .95 5.06c.1.26.21.52.32.78h-9.28a2 2 0 0 1-2-2V15.57a2 2 0 0 0-2-2H2a2 2 0 0 0-2 2v93.33a2 2 0 0 0 2 2h5.91a2 2 0 0 0 2-2V80.07a2 2 0 0 1 2-2h9.27c-.1.24-.2.47-.28.69l-.07.16a14.23 14.23 0 0 0-.92 5 10.92 10.92 0 0 0 .35 2.88A2.81 2.81 0 0 0 23 89.28l4.15.6a2.84 2.84 0 0 0 3-2.51 1.42 1.42 0 0 0 0-.41 6.47 6.47 0 0 1 .37-3.21c1.37-3.28 4.95-4.79 13.26-5.37A2 2 0 0 1 46 80.51c-.59 8.31-2.09 11.89-5.39 13.27a6.45 6.45 0 0 1-3.18.36 1.26 1.26 0 0 0-.43 0 2.84 2.84 0 0 0-2.49 3.12l.58 4a2.81 2.81 0 0 0 2.41 2.78 13.54 13.54 0 0 0 8-.55h.12l.73-.3v9.27a2 2 0 0 1-2 2H15.43a2 2 0 0 0-2 2v5.91a2 2 0 0 0 2 2h93.33a2 2 0 0 0 2-2v-5.91a2 2 0 0 0-2-2H79.93a2 2 0 0 1-2-2v-9.27l.75.31h.1a14.23 14.23 0 0 0 5 .92 11.36 11.36 0 0 0 2.88-.35 2.81 2.81 0 0 0 2.49-2.73l.6-4.15a2.83 2.83 0 0 0-2.51-3 1.46 1.46 0 0 0-.41 0 6.36 6.36 0 0 1-3.21-.36c-3.28-1.37-4.78-5-5.37-13.26a2 2 0 0 1 2.13-2.13c8.31.59 11.89 2.09 13.27 5.38A6.51 6.51 0 0 1 94 87a1.56 1.56 0 0 0 0 .43 2.83 2.83 0 0 0 3.12 2.49l4-.58a2.81 2.81 0 0 0 2.78-2.41 11.24 11.24 0 0 0 .37-3 14.26 14.26 0 0 0-1-5.06c-.1-.26-.21-.52-.32-.78h9.27a2 2 0 0 1 2 2v28.81a2 2 0 0 0 2 2h5.91a2 2 0 0 0 2-2V15.57a2 2 0 0 0-1.94-2zM114.41 60v4.38a2 2 0 0 1-2 2H79.93a2 2 0 0 1-2-2V60a2 2 0 0 1 2-2h32.48a2 2 0 0 1 2 2zM66.29 80v32.48a2 2 0 0 1-2 2H59.9a2 2 0 0 1-2-2V80.07a2 2 0 0 1 2-2h4.39a2 2 0 0 1 2 2zM57.9 44.4V11.92a2 2 0 0 1 2-2h4.39a2 2 0 0 1 2 2V44.4a2 2 0 0 1-2 2H59.9a2 2 0 0 1-2-2zM66.29 60v4.38a2 2 0 0 1-2 2H59.9a2 2 0 0 1-2-2V60a2 2 0 0 1 2-2h4.39a2 2 0 0 1 2 2zm-20 0v4.38a2 2 0 0 1-2 2H11.78a2 2 0 0 1-2-2V60a2 2 0 0 1 2-2h32.48a2 2 0 0 1 2 2z" /></svg>
