<svg viewBox="0 0 11.6 11.3" class="github-svg" width="20"><path d="M5.7,0c1.1,0,2,0.2,3,0.8s1.6,1.2,2.1,2c0.5,0.9,0.8,1.9,0.8,2.9c0,1.3-0.4,2.5-1.1,3.5s-1.7,1.7-2.8,2.1c-0.1,0-0.2,0-0.3,0S7.3,11.1,7.3,11v-2c0-0.5-0.1-0.9-0.4-1.1c0.6-0.1,1-0.1,1.3-0.2c0.4-0.2,0.8-0.4,1-0.7c0.3-0.4,0.4-1,0.4-1.7c0-0.3-0.1-0.6-0.2-0.8C9.3,4.5,9.2,4.3,9,4C9,3.9,9.1,3.7,9.1,3.5c0-0.3,0-0.7-0.2-1c-0.2,0-0.4,0-0.7,0.1C8.1,2.6,7.9,2.7,7.6,2.9L7.3,3.1c-0.5-0.1-1-0.2-1.5-0.2s-1,0.1-1.5,0.2L4.1,2.9C3.8,2.7,3.6,2.6,3.4,2.5C3.1,2.4,2.9,2.4,2.7,2.4c-0.1,0.3-0.2,0.7-0.2,1c0,0.2,0,0.4,0.1,0.5C2.5,4.2,2.3,4.5,2.3,4.7S2.1,5.1,2.1,5.4c0,0.7,0.1,1.2,0.4,1.6c0.2,0.3,0.5,0.6,1,0.7C3.8,7.9,4.2,7.9,4.8,8C4.6,8.2,4.4,8.4,4.4,8.8C4.1,8.9,3.9,9,3.6,8.9c-0.4,0-0.7-0.2-0.9-0.6C2.6,8.1,2.5,8,2.3,7.9C2.2,7.8,2.1,7.8,1.9,7.7l-0.2,0c-0.2,0-0.3,0-0.3,0.1s0,0.1,0.1,0.2L1.7,8C1.8,8.1,2,8.2,2.1,8.3c0.1,0.1,0.2,0.2,0.2,0.4l0.1,0.2c0.1,0.2,0.2,0.4,0.4,0.5C3,9.6,3.2,9.6,3.5,9.7c0.2,0,0.4,0,0.6,0l0.3,0l0,1.4c0,0.1,0,0.2-0.1,0.2s-0.2,0.1-0.3,0c-1.2-0.4-2.1-1.1-2.9-2.1S0,7,0,5.7c0-1.1,0.2-2,0.8-2.9s1.2-1.6,2.1-2.1S4.7,0,5.7,0z M2,7.9c0,0,0.1,0,0.1,0s0.1,0.1,0,0.1S2.1,8,2,7.9C2,8,2,7.9,2,7.9z M2.3,8.1c0,0,0.1,0,0.1,0s0.1,0.1,0,0.1s-0.1,0-0.1,0S2.2,8.1,2.3,8.1z M2.5,8.4C2.5,8.4,2.6,8.4,2.5,8.4c0.1,0,0.1,0,0.1,0c0,0.1,0,0.1,0,0.1c0,0,0,0-0.1,0s-0.1,0-0.1,0C2.5,8.5,2.5,8.4,2.5,8.4z M2.8,8.7C2.8,8.7,2.8,8.7,2.8,8.7c0.1,0,0.1,0,0.2,0s0,0.1,0,0.1s0,0.1,0,0.1c0,0-0.1,0-0.2,0C2.8,8.9,2.8,8.8,2.8,8.7C2.8,8.8,2.8,8.7,2.8,8.7z M3.2,9C3.2,9,3.2,8.9,3.3,9S3.4,9,3.4,9.1s0,0.1-0.1,0.1s-0.1,0-0.1,0S3.2,9.1,3.2,9C3.2,9.1,3.1,9,3.2,9z M3.9,9.1C3.9,9.1,3.9,9.1,3.9,9.1C3.8,9.1,3.8,9,3.8,9c-0.1,0-0.1,0-0.1,0.1s0,0.1,0.1,0.1S3.9,9.2,3.9,9.1z M4.2,9C4.3,9,4.3,9,4.3,9s0,0.1-0.1,0.1c0,0-0.1,0-0.1,0s0,0,0-0.1S4.1,9,4.2,9z" /></svg>