<svg width="110" viewBox="0 0 129 22.2" class="holden-svg"><path d="M12.1 22v-9.5H3.3V22H0V.2h3.3v9.3h8.8V.2h3.4V22zM39 13.9a15.2 15.2 0 0 1-.2 2.3 5.3 5.3 0 0 1-.6 1.9 6.6 6.6 0 0 1-1.2 1.7 7.6 7.6 0 0 1-2.6 1.8 7.9 7.9 0 0 1-3.2.6 7.8 7.8 0 0 1-3.1-.6 7.6 7.6 0 0 1-2.6-1.8 6.6 6.6 0 0 1-1.2-1.7 5.3 5.3 0 0 1-.6-1.9 14.3 14.3 0 0 1-.3-2.3V8.2a16 16 0 0 1 .3-2.3 6 6 0 0 1 .6-1.9 8.8 8.8 0 0 1 1.2-1.7A9 9 0 0 1 28.1.6a7.8 7.8 0 0 1 3.1-.6 7.9 7.9 0 0 1 3.2.6A9 9 0 0 1 37 2.3 8.8 8.8 0 0 1 38.2 4a6 6 0 0 1 .6 1.9 16.4 16.4 0 0 1 .2 2.3 26.2 26.2 0 0 1 .1 2.9 24.4 24.4 0 0 1-.1 2.8zm-3.3-5.6a9 9 0 0 0-.2-1.8 5 5 0 0 0-.4-1.3 4.7 4.7 0 0 0-.6-.9 7.1 7.1 0 0 0-1.4-1 5.8 5.8 0 0 0-1.9-.3l-1.8.3a7.1 7.1 0 0 0-1.4 1l-.7.9c-.1.4-.3.8-.4 1.3a9.7 9.7 0 0 0-.1 1.8 23.5 23.5 0 0 0-.1 2.8 21 21 0 0 0 .1 2.7 9.7 9.7 0 0 0 .1 1.8 10.4 10.4 0 0 0 .4 1.3 3.1 3.1 0 0 0 .7.9 4.5 4.5 0 0 0 1.4 1 3.9 3.9 0 0 0 1.8.4 4.1 4.1 0 0 0 1.9-.4 4.5 4.5 0 0 0 1.4-1 2.8 2.8 0 0 0 .6-.9 4 4 0 0 0 .4-1.3 9 9 0 0 0 .2-1.8c0-.7.1-1.6.1-2.7s-.1-2-.1-2.8zM47 22V.2h3.3V19h10.5v3zM83.1 13.3a16.6 16.6 0 0 1-.2 2.4 9.8 9.8 0 0 1-.6 2.3 6.2 6.2 0 0 1-1.4 1.9 7.2 7.2 0 0 1-2.5 1.6 10.1 10.1 0 0 1-3.1.5h-7.7V.2h7.7a10.1 10.1 0 0 1 3.1.5 5.8 5.8 0 0 1 2.5 1.5 7.7 7.7 0 0 1 1.4 1.9 7.9 7.9 0 0 1 .6 2.2 16.4 16.4 0 0 1 .2 2.3v4.7zm-3.4-6.2a5.1 5.1 0 0 0-1-2.5A4.8 4.8 0 0 0 75 3.2h-4.1V19H75a4.8 4.8 0 0 0 3.7-1.5 4.7 4.7 0 0 0 1-2.6c.1-1.1.1-2.5.1-4s0-2.8-.1-3.8zM91.1 22V.2H105v3H94.4v6.3h9v3h-9V19H105v3zM126 22L115.9 6.6V22h-3.3V.2h3l10.1 15.3V.2h3.3V22z" /></svg>
