<svg width="120" viewBox="0 0 316.8 56.7" class="homesick" width="100"><path d="M21.9 56.1h19.2v-.7c-1.8-.2-4.6-1.1-4.6-2.6V30.3c0-6.8-2.2-11.8-9-11.8-7.3 0-11.8 5.8-13.2 8.3l-.2-.1.2-26.7h-.6L.1 6.1v.5c1.3.8 3 1.5 3.9 2.2.7.5.8.9.8 1.6v41.9c0 1.9-2.3 2.9-4.7 3.1v.8h18.6v-.8c-2.1-.3-4.4-.9-4.4-2.8V29.4c0-.9.2-1.8.4-2.1.9-1.4 2.8-2.6 6-2.6 4.6 0 6.2 4.3 6.2 9.7v18.2c0 1.6-2.2 2.6-4.9 2.7v.8zm49-18.7c0 7.2-2.1 18-8.3 18-6.5 0-8.8-9-8.8-17.9 0-9 2.9-17.9 8.3-17.9 6.7.1 8.8 10.4 8.8 17.8m10.5.1c0-12.8-10-19-18.8-19-11.7 0-19.2 9-19.2 19 0 13.1 10.7 19.2 19 19.2 10.8 0 19-8.5 19-19.2m45.7 18.6h18.5v-.7c-1.8-.2-4.6-1.1-4.6-2.6V30.1c0-6.7-3.1-11.6-9-11.6-6 0-10.7 5-12.4 8.8h-.2c-.7-5.4-3.9-8.8-8.8-8.8-6 0-10.3 4.6-12.4 8.3l-.2-.1v-8.3h-.5l-13.4 5.3v.5c1.2.5 2.7 1.2 3.6 1.8.7.5.8.9.8 1.6v24.7c0 1.6-2 2.9-4.4 3.1v.8h18.2v-.8c-2.1-.3-3.9-.6-4.3-2.6V27.6c1.6-1.9 3.5-2.7 6-2.7 4.4 0 5.9 3.6 5.9 9v18.7c0 1.6-1.9 2.6-4.6 2.7v.9h18.5v-.7c-1.8-.2-4.3-1.1-4.3-2.6V28c1.3-1.6 3.4-3.1 6-3.1 4.3 0 5.9 3.6 5.9 9v18.6c0 1.6-1.5 2.6-4.3 2.7v.9zm30.1-25.8c.2-2.9 2.6-10.5 7.1-10.5 3.6 0 5.5 3.6 5.5 6.9 0 1.3-.3 2.1-1 2.8-.8.4-1.9.5-2.6.5-3.8.2-5.3.3-9 .3m24.3 13l-.8-.2c-1.2 3.9-6.2 6.3-10.8 6.3-8 0-12.8-6.8-12.8-15.8 0-.7 0-1.5.1-2.3h23.5c-.5-8.9-7.2-12.9-15.7-12.9-10.9 0-17.4 9.4-17.4 18.2 0 10.9 6.9 19.9 18.5 19.9 10 0 14.4-8.4 15.4-13.2m13.7-17.6c0-3.6 2.8-6.2 6.3-6.2 4.6 0 9.5 6.9 12.1 12.4l.6-.2-.9-11.1c-2.9-1.2-7.1-2.2-12-2.2-6.9 0-14 4.3-14 11.3 0 4.9 2.7 8.8 6.6 10.3 2 .7 5.4 1.6 7.6 2.2 3.3.9 5.6 2.3 5.6 5.5 0 5.5-3.7 7.7-7.5 7.7-5.3 0-10.2-8.7-12.1-13.5h-.6v11.8c3.4 1.5 8.1 2.8 13.5 2.8 8 0 15.8-3.7 15.8-12.1 0-5.4-3.4-9.3-8.4-10.8-1.5-.5-4.9-1.3-7.1-1.9-3.2-.9-5.5-2.2-5.5-6M233.5 8c0-3.2-2.5-5.5-5.6-5.5s-5.6 2.3-5.6 5.5c0 2.9 2.6 5.6 5.6 5.6 3-.1 5.6-2.6 5.6-5.6m-15.2 48.1H238v-.8c-1.9-.2-4.9-.9-4.9-2.9v-34h-.5l-13.7 5v.5c1.5.5 2.9 1.2 3.9 1.8.7.5.8 1.2.8 1.9v24.7c0 1.9-2.9 2.9-5.3 3.1v.7zM273 43.5l-.6-.3c-2.6 4-6 6.3-11.4 6.3-6.7 0-11.5-6-11.5-14.6 0-8 3.1-15.2 8-15.2 3.4 0 4.9 2.4 4.9 6.6 0 1.7-.6 2.9-.9 3.6.3 1.9 2.4 3.8 5.6 3.8 2.9 0 5.1-2.6 5.1-5.6 0-6.4-6.9-9.7-14.3-9.7-11 0-18.3 9-18.3 18.8 0 10.7 6.9 19.4 17.9 19.4 9.1.1 13.6-7 15.5-13.1M308.1 49.6c-2.7-4.4-6.3-10.9-10.4-17.9 2.5-2.5 4.3-4.3 7.1-7 3.4-3.2 10.7-4.6 11.4-4.6v-.8h-18.9v.7c2.6.2 6 1.8 6 2.7 0 1.5-6.5 8.8-13 13.9l-1 .2V.2h-.6l-13.5 6.3V7c1.3.7 3.2 1.5 3.9 2.1.7.5.7 1 .7 1.7v41.5c0 1.9-2.2 2.9-4.6 3.1v.8h18.3v-.8c-2.1-.3-4.2-.9-4.2-2.8V37.7h.2c.4 0 .9.2 1.6 1.5 4.3 7.5 7.8 13.5 7.8 14.3 0 .9-1.5 1.8-3.6 1.9v.8h21.4v-.8c-1.3-.1-3.8-.9-4.6-1.2-1.2-.9-2.5-2.2-4-4.6" /></svg>
