<svg class="jumpcut-svg" width="115" height="25" viewBox="0 0 117 25"><path d="M5.94 24.352c-4.576 0-6.048-2.592-5.28-6.944l.416-2.496h4.288l-.544 3.136c-.288 1.6.064 2.432 1.376 2.432 1.248 0 1.76-.8 2.112-2.752L11.22 1.056h4.288L12.564 17.76c-.832 4.736-2.816 6.592-6.624 6.592zm16.36 0c-4.896 0-6.272-2.912-5.408-7.872l2.72-15.424h4.192l-2.816 15.968c-.48 2.56.192 3.296 1.568 3.296 1.376 0 2.144-.64 2.56-3.168l2.848-16.096h4.16l-2.88 16.384c-.832 4.8-2.656 6.912-6.944 6.912zm15.976-12.544L36.164 24h-3.872l4.032-22.944h3.712l2.112 9.92v.032l.032-.064 5.632-9.888h3.744l-4 22.944h-3.872l2.176-12.32 1.376-4.704-1.312 2.912-4.288 7.424h-.992L38.916 9.92l-.256-2.976-.384 4.864zM61.1 4.576h-1.76l-1.504 8.608h1.6c1.792 0 2.784-.8 3.104-2.72l.576-3.392c.288-1.664-.352-2.496-2.016-2.496zM59.084 16.8h-1.888l-1.28 7.2h-4.064l4.032-22.944h5.984c4.352 0 5.984 2.496 5.344 6.368l-.704 3.808c-.672 3.712-2.816 5.568-7.424 5.568zm15.688 7.552c-5.024 0-6.688-2.88-5.824-7.616l1.632-9.12c.896-5.152 3.456-6.88 7.264-6.88 4.288 0 6.56 2.496 5.728 7.136l-.448 2.56h-4.352l.48-2.72c.384-2.272-.096-3.296-1.696-3.296-1.504 0-2.304.896-2.72 3.36l-1.632 9.152c-.48 2.72.352 3.584 1.792 3.584s2.144-.832 2.592-3.456l.448-2.528h4.384l-.48 2.752c-.832 4.832-2.752 7.072-7.168 7.072zm16.392 0c-4.896 0-6.272-2.912-5.408-7.872l2.72-15.424h4.192l-2.816 15.968c-.48 2.56.192 3.296 1.568 3.296 1.376 0 2.144-.64 2.56-3.168l2.848-16.096h4.16l-2.88 16.384c-.832 4.8-2.656 6.912-6.944 6.912zm24.232-19.52h-3.776L108.26 24h-4.128l3.36-19.168h-3.808l.672-3.776h11.712l-.672 3.776z" fill="#111" fill-rule="nonzero" /></svg>