<svg width="140" viewBox="0 0 210 37" class="lunarly-svg"> <defs><path d="M207.191 0l-12.023 18.892L183.25 0h-2.85l13.577 21.17V36.23h2.436V21.169L209.99 0h-2.799zm-43.053 0v36.231h19.951v-2.07h-17.516V0h-2.435zM131.73 0v36.231h2.436V21.48h10.727c.31 4.865 2.902 15.32 11.142 15.32l.103-2.225c-6.219 0-8.602-8.696-8.913-13.147 5.908-.414 9.328-5.02 9.328-10.559C156.554 5.072 152.77 0 146.24 0h-14.51zm15.319 18.029c4.041-3.028 4.876-8.97 1.828-13.016a9.135 9.135 0 0 0-3.689-2.89h.741c5.079 0 8.084 3.933 8.084 8.746 0 4.762-3.057 8.54-8.084 8.54h-1.53a9.22 9.22 0 0 0 2.65-1.38zM134.167 2.122h6.159c2.136 0 4.185.922 5.546 2.568.087.105.172.213.255.323 3.048 4.046 2.214 9.988-1.828 13.016l-.025.018c-1.22.908-2.717 1.362-4.238 1.362h-5.87V2.122zM108.108 0L93.442 36.231h2.592l3.265-8.126h20.728l3.317 8.126h2.591L111.218 0h-3.11zm1.555 2.33l9.535 23.653h-19.07l9.535-23.654zM85.37 0v31.883L61.894 0h-2.021v36.231h2.436V4.296L85.836 36.23h1.97V0H85.37zM48.81 0v23.188c0 7.608-5.234 11.387-11.4 11.387-6.168 0-11.454-3.779-11.454-11.387V0h-2.435v23.188c0 9.006 6.322 13.612 13.888 13.612 7.463 0 13.837-4.606 13.837-13.612V0H48.81zM0 0v36.231h19.952v-2.07H2.435V0H0z" id=a /><linearGradient id=b x1=.258% x2=101.258% y1=49.75% y2=49.75%><stop offset=0% stop-color=#FFCE24 /><stop offset=47.525% stop-color=#FF53DA /><stop offset=100% stop-color=#3200FF /></linearGradient></defs><g fill=none fill-rule=evenodd><mask fill=#fff id=c><use xlink:href=#a /></mask><path d="M207.191 0l-12.023 18.892L183.25 0h-2.85l13.577 21.17V36.23h2.436V21.169L209.99 0h-2.799zm-43.053 0v36.231h19.951v-2.07h-17.516V0h-2.435zM131.73 0v36.231h2.436V21.48h10.727c.31 4.865 2.902 15.32 11.142 15.32l.103-2.225c-6.219 0-8.602-8.696-8.913-13.147 5.908-.414 9.328-5.02 9.328-10.559C156.554 5.072 152.77 0 146.24 0h-14.51zm15.319 18.029c4.041-3.028 4.876-8.97 1.828-13.016a9.135 9.135 0 0 0-3.689-2.89h.741c5.079 0 8.084 3.933 8.084 8.746 0 4.762-3.057 8.54-8.084 8.54h-1.53a9.22 9.22 0 0 0 2.65-1.38zM134.167 2.122h6.159c2.136 0 4.185.922 5.546 2.568.087.105.172.213.255.323 3.048 4.046 2.214 9.988-1.828 13.016l-.025.018c-1.22.908-2.717 1.362-4.238 1.362h-5.87V2.122zM108.108 0L93.442 36.231h2.592l3.265-8.126h20.728l3.317 8.126h2.591L111.218 0h-3.11zm1.555 2.33l9.535 23.653h-19.07l9.535-23.654zM85.37 0v31.883L61.894 0h-2.021v36.231h2.436V4.296L85.836 36.23h1.97V0H85.37zM48.81 0v23.188c0 7.608-5.234 11.387-11.4 11.387-6.168 0-11.454-3.779-11.454-11.387V0h-2.435v23.188c0 9.006 6.322 13.612 13.888 13.612 7.463 0 13.837-4.606 13.837-13.612V0H48.81zM0 0v36.231h19.952v-2.07H2.435V0H0z" fill=url(#b) mask=url(#c) /></g></svg>
