<svg width="70" viewBox="0 0 1336.6 329" class="peel-svg"><path d="M0 11.1C0 5 5 0 11.1 0h123.4c19.7 0 37.4 2.7 52.9 8.2 15.5 5.5 28.7 13.2 39.5 23.3 10.8 10 19.1 22 24.9 36 5.8 13.9 8.7 29.4 8.7 46.3v.9c0 19.1-3.5 35.9-10.3 50.3-6.9 14.4-16.4 26.5-28.4 36.2-12.1 9.7-26.2 17-42.3 21.9-16.1 4.9-33.5 7.3-51.9 7.3H83.5c-6.1 0-11.1 5-11.1 11.1v76.6c0 6.1-5 11.1-11.1 11.1H11.1C5 329 0 324.1 0 317.9V11.1zm129.7 154.8c18.2 0 32.3-4.8 42.3-14.3 10-9.6 15-21.4 15-35.5v-.9c0-16.3-5.2-28.7-15.7-37.1-10.5-8.5-24.8-12.7-43-12.7H83.5c-6.1 0-11.1 5-11.1 11.1v78.4c0 6.1 5 11.1 11.1 11.1h46.2zM386.1 0h225.6c6.1 0 11.1 5 11.1 11.1v42.2c0 6.1-5 11.1-11.1 11.1H457.6c-6.1 0-11.1 5-11.1 11.1v44.6c0 6.1 5 11.1 11.1 11.1h66.5c6.1 0 11.1 5 11.1 11.1v42.3c0 6.1-5 11.1-11.1 11.1h-66.5c-6.1 0-11.1 5-11.1 11.1v46.9c0 6.1 5 11.1 11.1 11.1h156.5c6.1 0 11.1 5 11.1 11.1v42.2c0 6.1-5 11.1-11.1 11.1h-228c-6.1 0-11.1-5-11.1-11.1v-307C375.1 5 380 0 386.1 0zM1111.3 0h50.2c6.1 0 11.1 5 11.1 11.1v241.5c0 6.1 5 11.1 11.1 11.1h141.9c6.1 0 11.1 5 11.1 11.1V318c0 6.1-5 11.1-11.1 11.1h-214.3c-6.1 0-11.1-5-11.1-11.1V11.1c0-6.1 5-11.1 11.1-11.1zM748.6 0h225.6c6.1 0 11.1 5 11.1 11.1v42.2c0 6.1-5 11.1-11.1 11.1H820.1c-6.1 0-11.1 5-11.1 11.1v44.6c0 6.1 5 11.1 11.1 11.1h66.5c6.1 0 11.1 5 11.1 11.1v42.3c0 6.1-5 11.1-11.1 11.1h-66.5c-6.1 0-11.1 5-11.1 11.1v46.9c0 6.1 5 11.1 11.1 11.1h156.5c6.1 0 11.1 5 11.1 11.1v42.2c0 6.1-5 11.1-11.1 11.1h-228c-6.1 0-11.1-5-11.1-11.1v-307c.1-6.1 5-11.1 11.1-11.1z" /></svg>
