<svg width="46" viewBox="0 0 33 33" xmlns="http://www.w3.org/2000/svg"><path d="M32.143 0v23.81l-.358.475a19.64 19.64 0 0 1-31.427 0L0 23.81V0h32.143zM3.572 22.602a16.071 16.071 0 0 0 3.904 3.478 8.857 8.857 0 0 1 4.292-5.384l6.035-3.33a3.572 3.572 0 0 0 1.402-4.82 3.572 3.572 0 0 0-6.25 0 3.572 3.572 0 0 0 1.331 4.775l-3.384 1.858a7.142 7.142 0 0 1-1.081-8.367 7.142 7.142 0 0 1 6.25-3.67 7.142 7.142 0 0 1 6.25 3.67 7.144 7.144 0 0 1-2.804 9.723l-6.026 3.287a5.304 5.304 0 0 0-2.708 3.854 16.071 16.071 0 0 0 10.599-.008 5.3 5.3 0 0 0-2.712-3.882l-.687-.385 3.57-1.972a8.858 8.858 0 0 1 3.133 4.639 16.056 16.056 0 0 0 3.885-3.466V3.57h-25V22.6z" fill="#000" fill-rule="nonzero"/></svg>