<svg width="120" viewBox="0 0 108.77 44.52" class="social-sabotage-svg"><path d="M40.85 30.81l-.11.09a.33.33 0 0 0 0 .14.5.5 0 0 0-.05.13.74.74 0 0 1-.13.21l-.11.13-.09.09-.19.08H40l-.17.07-.15.07h-.18q-.09 0-.09-.06a.37.37 0 0 0-.09-.27c0-.05-.11-.05-.2 0l-.27.14H39l-.16.08-.29.13a.83.83 0 0 1-.27.07.23.23 0 0 1-.12-.06.61.61 0 0 1-.16-.17c-.13-.08-.2-.14-.2-.18a.09.09 0 0 0 0-.07v-.07a.06.06 0 0 0 0-.06.54.54 0 0 0 0-.18v-.06a.18.18 0 0 1 0-.07.11.11 0 0 1 0-.08.11.11 0 0 0 0-.08l.07-.07.07-.06v-.14l.07-.2v-.58a.09.09 0 0 0 0-.07.86.86 0 0 0 0-.32 1.13 1.13 0 0 0 0-.26l-.07-.22a.51.51 0 0 0-.09-.18c0-.08-.08-.11-.11-.09h.11v-.07a.1.1 0 0 0-.09.07.37.37 0 0 0-.2-.07h-.22l-.09.07-.32.18h-.09l-.09.07h-.2a.47.47 0 0 0-.29.14.68.68 0 0 0-.18.29l.07-.06h.06l.09-.07-.09.09v.05h-.16l-.19.23-.16.22a2.31 2.31 0 0 0-.2.24 1.88 1.88 0 0 1-.16.23l-.18.25-.18.27a.29.29 0 0 0-.2.07.38.38 0 0 0-.09.09.31.31 0 0 0-.09.11 2.75 2.75 0 0 0-.17.29 1 1 0 0 1-.19.27h.29a1.35 1.35 0 0 0-.11.34v.05a.21.21 0 0 1-.27.15.21.21 0 0 1-.15-.16.09.09 0 0 1 0 .07h-.07c-.07 0-.15.1-.15.13H34a.36.36 0 0 1 .18-.07h2.15a3.33 3.33 0 0 1 .94.13.67.67 0 0 0 .18.07l.16.07a2.43 2.43 0 0 1 .25.2.64.64 0 0 1 .2.43v.09a.29.29 0 0 0 0 .13.33.33 0 0 0 0 .14v.06h.21a1 1 0 0 0 0 .34v.22a.09.09 0 0 0 0 .07v.2a.89.89 0 0 0 0 .23.28.28 0 0 1 0 .18v.07a.29.29 0 0 0 0 .13.22.22 0 0 0 .11.2.16.16 0 0 1 .09.15.74.74 0 0 0 0 .21l.15.13a.29.29 0 0 1 .08.14v.28a.11.11 0 0 0 0 .08.11.11 0 0 1 0 .08v.54a.43.43 0 0 0 0 .16v.14a1.75 1.75 0 0 1 0 .56 2.71 2.71 0 0 1-.11.61c0 .21-.13.42-.2.63a4.51 4.51 0 0 1-.29.63 2.92 2.92 0 0 1-.29.48c-.12.16-.24.3-.36.44l-.21.2-.06.08-.07.08a.48.48 0 0 0-.09.11l-.09.13a.35.35 0 0 0-.06.14.88.88 0 0 1 0 .15l-.31.24-.32.26v-.04l.35.35a.32.32 0 0 0-.14.14.69.69 0 0 0-.11.13 3 3 0 0 0-.25.25l-.23.25c-.09.09-.16.18-.24.27a.69.69 0 0 0-.11.13l-.14.14a.16.16 0 0 1-.08.06l-.07.07-.09.07a.31.31 0 0 0-.09.07 5.07 5.07 0 0 1-.72.4 2.43 2.43 0 0 1-.38.13l-.34.09h-2.38a4 4 0 0 1-.85 0h-.51a.58.58 0 0 1-.25-.09l-.11-.07-.12-.09a2.39 2.39 0 0 1-.58-.47 2 2 0 0 1-.39-.63l-.09-.35-.09-.35v-1a2.23 2.23 0 0 1 .05-.36 3.38 3.38 0 0 1 .11-.34 2 2 0 0 1 .12-.34 7.33 7.33 0 0 1 .67-1.23l.2-.08h.14c.09 0 .11.16.07.43h.15l-.21.56-.21.54a2.45 2.45 0 0 0-.18.54 4.52 4.52 0 0 0-.11.53 1 1 0 0 0 0 .34v.17a.49.49 0 0 1 0 .17.49.49 0 0 0 0 .17v.17a1.18 1.18 0 0 0 .16.29 1.26 1.26 0 0 0 .52.42l.33.14h.9a1.48 1.48 0 0 1 .5.13l.13.07a.17.17 0 0 0 .14 0h.4l.43-.08a2.45 2.45 0 0 0 .45-.17l.08-.07a.31.31 0 0 0 .09-.07l.23-.06.25-.11a1.53 1.53 0 0 0 .36.04c.13-.07.25-.15.37-.23l.34-.28a3.34 3.34 0 0 0 .32-.33l.27-.35-.42.35a2.88 2.88 0 0 1-.39.3 1.85 1.85 0 0 1-.72.38l-.3.08-.27.08a2.6 2.6 0 0 1-.56.07h-1a.42.42 0 0 1-.09-.14.36.36 0 0 0-.16-.11l-.27-.07h-.74l-.15-.06.09.08.09.07.2.12a1.25 1.25 0 0 1-.54-.12.62.62 0 0 1-.19-.12l-.15-.17-.12-.24c0-.1-.07-.2-.1-.3a2.81 2.81 0 0 1-.07-.65 2.9 2.9 0 0 1 .22-1 3.12 3.12 0 0 1 .23-.49c.09-.17.19-.33.29-.5a.81.81 0 0 1 .44-.52 1.82 1.82 0 0 1 .65-.12h.6a.26.26 0 0 1 0 .21 5.31 5.31 0 0 1-.2.56 6.33 6.33 0 0 0-.45 1.19.79.79 0 0 0-.06.22v.21a.81.81 0 0 0 0 .22h1.89a.57.57 0 0 0 .22-.07l.2-.13.16-.11.18-.16a4.36 4.36 0 0 0 .43-.43l.47-.52c.09-.11.16-.2.22-.26l.09-.12a.45.45 0 0 0 .1-.14l.08-.13a1.16 1.16 0 0 0 .16-.63l.22-.27a2.31 2.31 0 0 0 0-.37v-.73a1.15 1.15 0 0 0 0-.37v-.37a.77.77 0 0 0-.07-.39l-.07-.41-.07-.34H34a8.34 8.34 0 0 1-1 0h-.27l-.25-.07-.25-.06h-.11a.16.16 0 0 1-.11 0 2 2 0 0 1-.83-.59 1.85 1.85 0 0 1-.43-.89v-.07a.09.09 0 0 1 0-.07v-.07a.06.06 0 0 1 0-.06v-.14a.09.09 0 0 0 0-.07v-.13a.09.09 0 0 1 0-.07v-.13a.33.33 0 0 1 0-.14v-.25l.05-.16v-.52a1.09 1.09 0 0 1 .09-.25 2.12 2.12 0 0 1 .11-.21l.1-.21.06-.2.05-.16a1 1 0 0 1 .17-.44c.08-.13.16-.26.23-.39.09-.12.18-.25.26-.38l.24-.38.27-.36a2.5 2.5 0 0 1 .31-.34.94.94 0 0 1 .12-.18l.13-.15a2.5 2.5 0 0 1 .21-.35l.26-.35a1.15 1.15 0 0 1 .14-.17l.17-.17.18-.13.18-.14.18-.13.08-.07.08-.07.09-.06.11-.07.2-.13a9.48 9.48 0 0 1 1-.52l.24-.14h.11l.11-.05.22-.07a5.93 5.93 0 0 1 .93-.2 7.22 7.22 0 0 1 .93 0 4 4 0 0 1 .91.16 2.5 2.5 0 0 1 .63.27 2.71 2.71 0 0 1 .51.38 2 2 0 0 1 .38.49s0 .06.05.07v.13a.09.09 0 0 1 0 .07.33.33 0 0 1 0 .14.29.29 0 0 1 0 .13v.14a.38.38 0 0 1 .09.13 1.89 1.89 0 0 1 .09.34v1.28a1.93 1.93 0 0 1 0 .34v.33a.33.33 0 0 0-.02.17.29.29 0 0 0 0 .13.34.34 0 0 0-.05.14.29.29 0 0 0 0 .13.44.44 0 0 0-.06.16.31.31 0 0 1-.06.13M29.46 41.94l.12.09.1.09a.43.43 0 0 1 .07.25l-.16-.18a1.71 1.71 0 0 1-.13-.23zm6.28-1.19l-.36.39-.36.37a4.51 4.51 0 0 0 .47-.4 1.12 1.12 0 0 0 .29-.36zm-.52.7l.26-.24.24-.23.24-.25.09-.11.07-.07.09-.07a4.16 4.16 0 0 0 .79-1.1h-.09a3.64 3.64 0 0 1-.74 1.08l-.21.23-.21.24-.23.24-.22.23zm1.93-6.83v.07a.09.09 0 0 0 0-.07v-.07a.09.09 0 0 1 0 .07zm.25 1l.07.67-.07-.61zm0 2.47a.09.09 0 0 0 0 .07v-.06zM48.4 42.41a2.29 2.29 0 0 0 0 .37 2.67 2.67 0 0 1 0 .4l-.18.15-.29.16-.08.08h-.07a3 3 0 0 0-.6.21 1 1 0 0 1-.59.08.54.54 0 0 0-.36.14 1.44 1.44 0 0 1-.25.18l-.27.16h-.65s-.06-.15-.09-.24a.32.32 0 0 1 .07-.3.55.55 0 0 0 .06-.4 2.09 2.09 0 0 1 0-.5 3.88 3.88 0 0 1 .11-.49.57.57 0 0 0 0-.26.57.57 0 0 1 0-.26 2 2 0 0 0 0-.59 1.13 1.13 0 0 1 .14-.6.28.28 0 0 0 0-.22.86.86 0 0 1-.06-.23v-.87a.18.18 0 0 1 .08-.15.14.14 0 0 0 0-.17.09.09 0 0 0 0-.07.09.09 0 0 1 0 .07l-.08-.2a.37.37 0 0 1 .08-.25.08.08 0 0 0 0-.09.21.21 0 0 1 0-.11h-.22a2.8 2.8 0 0 1-.89.28l-.87.1a.54.54 0 0 0-.25.06.67.67 0 0 0-.19.25.56.56 0 0 0 .17-.09 1 1 0 0 0-.06.25.85.85 0 0 1-.09.22.65.65 0 0 1-.17.16l-.21.16h-.06a.06.06 0 0 0 0 .06c-.06.13-.12.27-.17.41l-.19.49.14-.14.13-.11a.33.33 0 0 0 0 .14.21.21 0 0 1 0 .11 1.14 1.14 0 0 0-.16.31.62.62 0 0 1-.24.29c-.11.11-.14.2-.09.29a.26.26 0 0 1 0 .21 4 4 0 0 0-.22.47c0 .15-.1.3-.14.47s-.12.2-.32.16a.42.42 0 0 1-.36.27h-.55a1.7 1.7 0 0 1-.59-.1.17.17 0 0 0-.14 0l-.09.06-.09.07a.81.81 0 0 1-.57.25.47.47 0 0 1-.44-.25 1.16 1.16 0 0 1 .18-1.21 1.27 1.27 0 0 0 .18-.37.93.93 0 0 1 .16-.37.17.17 0 0 0 0-.1.21.21 0 0 1 0-.11 1.18 1.18 0 0 0 .18-.21.61.61 0 0 0 .08-.26.67.67 0 0 1 .07-.24l.14-.27a1.66 1.66 0 0 0 .14-.37.91.91 0 0 1 .24-.37l.13.06q.21-.19 0-.24c-.08 0-.1-.07-.07-.16a3.45 3.45 0 0 1 .14-.34 1.66 1.66 0 0 0 .15-.33l.07-.07a1.13 1.13 0 0 0 .22-.27 1.43 1.43 0 0 0 .09-.27.33.33 0 0 1 0-.14c.12-.22.23-.44.33-.67a3.39 3.39 0 0 1 .41-.65.32.32 0 0 1 .07-.18 3.38 3.38 0 0 0 .11-.34.54.54 0 0 1 .42-.38 2.41 2.41 0 0 1 0-.38.69.69 0 0 1 .27-.38.38.38 0 0 0 .15-.24 2 2 0 0 1 .08-.26l.13-.3c.05-.1.1-.2.16-.3a.37.37 0 0 0 .07-.14c0-.06.07-.08.16-.06v-.12a.21.21 0 0 1 0-.11 1.83 1.83 0 0 1 .14-.32l.17-.31a.25.25 0 0 0 .27-.09.5.5 0 0 1 .27-.18.29.29 0 0 0-.36-.12c.06-.1.11-.2.17-.29a1.59 1.59 0 0 0 .12-.27.3.3 0 0 1 .19-.14.31.31 0 0 0 .17-.13.31.31 0 0 0 0-.19.17.17 0 0 1-.04-.09.64.64 0 0 0 .2-.39.91.91 0 0 1 .13-.38.92.92 0 0 0 .16-.31 1.06 1.06 0 0 1 .16-.34 3.72 3.72 0 0 1 .19-.34l.21-.31.16-.06h.11a1.39 1.39 0 0 0 .25-.38.24.24 0 0 1 .07-.21c.07-.06 0-.12 0-.2a.6.6 0 0 1 .36-.49v-.14a1.1 1.1 0 0 0 .38-.59 6.17 6.17 0 0 0 .11-.62 1.18 1.18 0 0 1 .14-.45c.07-.13.15-.28.22-.43a.21.21 0 0 1 .15-.11.25.25 0 0 1 .17 0 .43.43 0 0 1 .11.12.86.86 0 0 0 .14.13 1.94 1.94 0 0 0 .38-.67 1.35 1.35 0 0 1 .11-.34.58.58 0 0 1 .26-.37 2.71 2.71 0 0 1 .37-.21c.13-.06.2 0 .2.13l.07.41.38-.06.36-.06h.31s.06.14 0 .29v.54a1.91 1.91 0 0 0-.06.33v.34l-.09.81-.09.81a.81.81 0 0 0 0 .38 2.3 2.3 0 0 1 0 .74 4.94 4.94 0 0 1-.18.76 1.4 1.4 0 0 0 0 .5 2.29 2.29 0 0 1 0 .64l-.09.64a4.71 4.71 0 0 1-.08.5 1.51 1.51 0 0 1-.08.51c-.08.17 0 .5-.08.74a3 3 0 0 0-.07.74c0 .25 0 .42-.06.63a2.69 2.69 0 0 1-.06.63c-.06.21 0 .21 0 .31v1.3a.13.13 0 0 0 0 .12 1 1 0 0 1 .07.54c0 .19-.06.38-.07.56s0 .3 0 .45a1.09 1.09 0 0 0 0 .44v.09l-.25 1.33-.18 1.18-.2 1.35zm-6.6-6.49a.06.06 0 0 0 0-.06.06.06 0 0 1 0 .06zm4.13-5.12a1.51 1.51 0 0 1 .15-.28 1.39 1.39 0 0 0 .12-.28 2.09 2.09 0 0 0 0-.5 2 2 0 0 1 .06-.58l-.09.13v.08c-.14.3-.28.59-.43.87s-.29.58-.43.88c-.07.15-.14.3-.2.45s-.12.3-.18.47a2.33 2.33 0 0 0-.11.28 2.33 2.33 0 0 1-.11.28c-.08.18-.16.36-.25.54l-.27.54a2.12 2.12 0 0 1-.11.21.4.4 0 0 0-.09.21 4.58 4.58 0 0 1-.33.87q-.21.42-.39.84a.26.26 0 0 0 .15-.12 1.09 1.09 0 0 1 .08-.15q.31-.63.6-1.26c.2-.41.4-.83.61-1.25.1-.2.2-.39.28-.59a2.1 2.1 0 0 1 .37-.56 1 1 0 0 1 .11-.17.62.62 0 0 0 .11-.17l.18-.37.18-.37zm-1.48 6.43a2.13 2.13 0 0 0 1-.12.57.57 0 0 0 0-.26 1 1 0 0 1 0-.25 1.13 1.13 0 0 1 0-.26.56.56 0 0 1 .17-.26v-1a.21.21 0 0 1 0-.11h.14a.09.09 0 0 0 0-.07.06.06 0 0 1 0-.06c-.11 0-.17 0-.2-.08s-.06-.15-.09-.24a2.59 2.59 0 0 0-.14.29.41.41 0 0 1-.22.23.15.15 0 0 0-.14.11v.27a.12.12 0 0 1-.09.11l-.21.41a1.5 1.5 0 0 0-.15.42 1.63 1.63 0 0 1-.18.43c-.16.22-.14.36.07.4zm1.32-3.71H46a.34.34 0 0 0 .1-.16.28.28 0 0 0-.33.16zm0 1.71v.06h.07zm.14-3.78l.09-.16.09-.17H46a.44.44 0 0 0-.07.33zm.56-1.47l.09-.09-.06.09a.09.09 0 0 0 0 .07zm1.73-4l-.35.46a.39.39 0 0 0 0 .46.11.11 0 0 1 0 .08.11.11 0 0 0 0 .08v.53a1.89 1.89 0 0 0 0 .67 1.83 1.83 0 0 1 0 .66q0 .18.12.18a.09.09 0 0 0 0 .07.09.09 0 0 1 0-.07v-1.26l.09-.44a2.81 2.81 0 0 0 0-.41v-.21a.46.46 0 0 1 0-.2 1.48 1.48 0 0 0 .12-.29.27.27 0 0 0 .02-.31zM55.54 40.98c.12-.12.24-.24.35-.37l.32-.37a10.45 10.45 0 0 0 1-1.3l.79-1.31.1-.1.1-.1c-.21.34-.42.69-.62 1s-.41.7-.64 1a6 6 0 0 1-.46.66l-.5.64-.27.36a3.11 3.11 0 0 0-.25.38 2.18 2.18 0 0 1-.54.63 3 3 0 0 1-.74.47.54.54 0 0 0-.18.11l-.13.18a2.83 2.83 0 0 1-.84.7l-.14.07h-.1a.18.18 0 0 0-.22 0l-.21.13a5.3 5.3 0 0 1-.57.33 2.64 2.64 0 0 1-.66.25.93.93 0 0 1 .14-.14l.13-.11a.37.37 0 0 1-.21 0 .32.32 0 0 0-.27 0v.32l-.2.1a.28.28 0 0 1-.18 0s-.07 0-.07-.06a.14.14 0 0 1 0-.09l.06-.1a.06.06 0 0 0 0-.08H50a.09.09 0 0 1 0-.07l.41-.15a2.64 2.64 0 0 1 .4-.12l.19-.08a.25.25 0 0 0 .13-.14.8.8 0 0 1 .47-.43l.19-.1a.69.69 0 0 1 .21-.11.35.35 0 0 0-.05-.08v-.06a1 1 0 0 1-.51.36h-.18s-.22.14-.3.09a1.14 1.14 0 0 0-.26-.09h-.21c-.07 0-.13.08-.19.22l-.08-.12-.08-.09a7.8 7.8 0 0 0-.77.5l-.3-.13c-.1 0-.14-.13-.12-.28s0 0-.06 0h-.09l.09-.31a.34.34 0 0 0 0-.28.29.29 0 0 1 0-.13.37.37 0 0 1 .07-.14.57.57 0 0 0 .17-.28.39.39 0 0 1 .06-.26 1.65 1.65 0 0 1 .09-.54c0-.17.11-.35.15-.53a1.6 1.6 0 0 1 .34-.61.26.26 0 0 0 .09-.17.26.26 0 0 1 .14-.17.33.33 0 0 0 0-.14c0-.06.06-.1.15-.13a.21.21 0 0 1 0-.24.4.4 0 0 0 .07-.24.54.54 0 0 0 0-.18.2.2 0 0 0 0-.15.61.61 0 0 1 0-.19l.12-.15.34-.34c-.11-.1-.16-.18-.16-.24a.89.89 0 0 1 .16-.34 1.34 1.34 0 0 0 .22-.7 2.41 2.41 0 0 1 0-.38.62.62 0 0 1 .27-.38.48.48 0 0 1 0-.29 2.54 2.54 0 0 1 .16-.28c.07-.1.14-.2.2-.3a.76.76 0 0 0 .11-.32l-.08.11-.08.09a.67.67 0 0 1 .07-.46l.24-.46a1 1 0 0 0 0 .24v.28l.11-.12a1 1 0 0 1 .21-.74 1 1 0 0 0 .19-.27.42.42 0 0 0 0-.31H52v-.07a1.36 1.36 0 0 0 0-.4c0-.09.11-.16.27-.2s.06-.05 0-.11a.42.42 0 0 0-.14-.18 1.35 1.35 0 0 0 .15-.26.59.59 0 0 1 .23-.24.33.33 0 0 0 .12-.14l.09-.2v-.13a.09.09 0 0 0 0 .07v.06a.3.3 0 0 1 0-.29 1.42 1.42 0 0 0 .11-.33c.08-.23.14-.45.2-.68a5.3 5.3 0 0 1 .23-.67 1.22 1.22 0 0 1 .16-.37c.07-.13.15-.25.22-.37a1.75 1.75 0 0 0 .18-.29.23.23 0 0 0 0-.27.15.15 0 0 1 0-.16 3.64 3.64 0 0 1 .25-.57c.08-.19.17-.38.24-.58v-.06c0-.06.09-.16.13-.24a2.44 2.44 0 0 0 .1-.24c.06-.14.11-.29.17-.44a2.25 2.25 0 0 1 .19-.45.92.92 0 0 1 .29-.3h.18a.42.42 0 0 1 .09.14v.18a.34.34 0 0 1 0 .2c-.08.2-.15.39-.24.58a5.17 5.17 0 0 0-.23.59.66.66 0 0 0 .2.14.06.06 0 0 0 0 .06.06.06 0 0 1 0-.06.55.55 0 0 0 .15-.24.29.29 0 0 1 .25-.19c0-.09.1-.18.16-.27l.25-.29c.07-.16.15-.32.23-.47l.26-.47a1.75 1.75 0 0 1-.22.63 1.51 1.51 0 0 0-.21.65.49.49 0 0 0 .27-.31 1.3 1.3 0 0 1 .14-.32 2.13 2.13 0 0 0 .14-.35 2.17 2.17 0 0 1 .15-.35h.94v.7a.64.64 0 0 1 .18-.06.41.41 0 0 0 .18-.05q.59-.18 1.14-.3a3.78 3.78 0 0 1 1.06-.06.7.7 0 0 0 .32-.05 1.28 1.28 0 0 1 .75-.05 4.71 4.71 0 0 1 .64.19 1.19 1.19 0 0 1 .26.11l.26.11a.91.91 0 0 1 .22.11.43.43 0 0 1 .14.23.7.7 0 0 0 .11.23.34.34 0 0 1 0 .28.07.07 0 0 1-.06.07v.07l-.07.2v.13a.23.23 0 0 1-.06.12 13.54 13.54 0 0 0-.88 1.12 6.59 6.59 0 0 1-.94 1.1 1.8 1.8 0 0 1-.2.19l-.23.17a.09.09 0 0 0 0-.07l-.15.1a.52.52 0 0 0-.1.11.58.58 0 0 1-.26.35 1.62 1.62 0 0 0-.32.32l.31.11.34.1a.49.49 0 0 0 .17 0 .86.86 0 0 1 .23-.06l.11.11a.53.53 0 0 0 .12.14.24.24 0 0 1 0 .2.41.41 0 0 0 0 .22.46.46 0 0 0 0 .2 1.4 1.4 0 0 1 0 .81.14.14 0 0 0 0 .09.11.11 0 0 1 0 .09 1.23 1.23 0 0 0-.19.31 3.37 3.37 0 0 0-.1.34.13.13 0 0 1-.06.07.09.09 0 0 0 0 .07l-.17.16-.15.17a.51.51 0 0 1-.09-.18.09.09 0 0 1 0 .07.13.13 0 0 0-.06.07 2 2 0 0 1-.15.53 4.82 4.82 0 0 0-.27.5 16.81 16.81 0 0 1-1 1.75.67.67 0 0 0 0-.2.67.67 0 0 1 0-.2c.09-.29.18-.57.26-.84s.16-.57.23-.87a.24.24 0 0 0-.06.09v.09l-.29.71-.27.71a2.26 2.26 0 0 1-.26.42 2.55 2.55 0 0 0-.23.43c-.11.25-.22.51-.35.76s-.25.51-.37.77a.21.21 0 0 1 0 .11 1.8 1.8 0 0 0-.37.53c-.08.18-.16.37-.23.55a3.92 3.92 0 0 1-.44.7l-.51.67-.11.16-.13.16zM51 37.63a.09.09 0 0 1 0-.07.09.09 0 0 0 0 .07zm1.39-4.38a1.58 1.58 0 0 0-.2.36h-.07v-.1a.17.17 0 0 1 0-.1.24.24 0 0 1 .27-.18zm1.37 8.2a.09.09 0 0 0 0-.07l.74-1 .06-.07.25-.23.25-.24a1.08 1.08 0 0 1 .18-.24.38.38 0 0 0 .11-.23.54.54 0 0 1 .18-.45 3.69 3.69 0 0 1 .4-.29.5.5 0 0 0 .27-.36l.07-.68a.8.8 0 0 1 .11-.25.85.85 0 0 1 .25-.17h.09a1.72 1.72 0 0 0 .07-.21.34.34 0 0 1 .09-.19c.16-.24.19-.43.09-.56l.25-.26.22-.24a.13.13 0 0 0 0-.18.41.41 0 0 1-.13-.25.44.44 0 0 1 .15-.35h.14l.09-.31.09-.28a.62.62 0 0 0 0-.27.57.57 0 0 1 0-.26 1.58 1.58 0 0 0 0-.38c0-.11-.07-.19-.21-.25s-.15-.2-.22-.2a.66.66 0 0 0-.34.2l-.43.34c-.13.1-.27.21-.42.31a2 2 0 0 1-.36.19.5.5 0 0 1-.34 0 1 1 0 0 0-.46-.04c-.12.33-.24.65-.34 1s-.22.64-.34 1a4.8 4.8 0 0 0-.19.78 1.75 1.75 0 0 1-.41.77.06.06 0 0 0 0 .08.44.44 0 0 1 0 .32c0 .11-.08.22-.11.33a1.21 1.21 0 0 1-.09.34l-.09.34-.09.41a1.26 1.26 0 0 1-.16.42 2 2 0 0 1-.1.21l-.1.21-.09.41a1.63 1.63 0 0 1-.18.43.41.41 0 0 0 0 .22 1.87 1.87 0 0 1-.09.88.42.42 0 0 0 0 .27v.26l.16-.15.11-.11a1.88 1.88 0 0 0 .51-.42l.39-.48zm-.94-6.25c.07-.22.15-.43.22-.64a1.71 1.71 0 0 0 .11-.59c-.09.21-.17.42-.25.62a1.08 1.08 0 0 0-.12.61zm.9-2.47a.31.31 0 0 0 .09-.07zm.2-.8c-.17.07-.25.13-.25.19a.49.49 0 0 0 0 .17.29.29 0 0 0 0-.13.64.64 0 0 1 .06-.18zm.2 9.38a.09.09 0 0 1 0 .07.16.16 0 0 0 0-.07zm1.3-13.63a1.46 1.46 0 0 0-.77.72 3.91 3.91 0 0 0-.15.83.41.41 0 0 0 0 .22.28.28 0 0 0 .07.21 3.13 3.13 0 0 0 .5-.89c.1-.31.22-.61.34-.91a.09.09 0 0 0 0-.07.06.06 0 0 1 0-.06zm-.74-1a.06.06 0 0 0 0 .06zm.77 1.82h-.07a.54.54 0 0 1-.09.35.25.25 0 0 0 0 .34l.09-.37.09-.37zm.26 11.81v.06a.06.06 0 0 0 0-.06zm.18-12.47v-.09h-.06a.09.09 0 0 0 0 .07zm.21 3.14h.13a.11.11 0 0 0 .11 0l.51-.41c.17-.13.34-.28.5-.43s.42-.38.61-.58l.61-.61a4.07 4.07 0 0 0 .55-.69 2 2 0 0 0 .25-.76.28.28 0 0 0-.09-.27l.25-.09c-.1-.24-.32-.29-.65-.14s-.56.25-.84.39a5.28 5.28 0 0 0-.8.53l-.24.06a.5.5 0 0 0-.15.2c-.07.18-.15.36-.23.54a2.43 2.43 0 0 0-.17.52 3.21 3.21 0 0 1-.07.43l-.09.44a1.53 1.53 0 0 1-.1.41c0 .14-.07.27-.1.42zm1.14 7.59l-.13.17-.09.12v-.16a.76.76 0 0 1 .18-.09zm.76-1.68l-.27.4a.73.73 0 0 1 .18-.4zm.38-.74l-.2.4h-.07l.14-.4zm.14 1.12a.77.77 0 0 1 .25-.56c0 .1-.09.2-.14.3a2.56 2.56 0 0 0-.11.24zm.16-6.87a.78.78 0 0 0 .34-.05.58.58 0 0 0 .22-.22.45.45 0 0 0-.11-.63c-.07.16-.14.32-.21.46l-.21.44zm1-1.53l.13-.13.1-.14.14-.09a.35.35 0 0 0 .13-.11l.34-.45c.12-.15.22-.31.33-.47a1 1 0 0 0 .1-.17l.08-.17a1.23 1.23 0 0 0-.34.41 3.9 3.9 0 0 1-.4.51 1.9 1.9 0 0 0-.34.54c-.13.08-.19.16-.18.25zm.81.23v.06a.09.09 0 0 1 0 .07h.07a.09.09 0 0 0 0-.07s-.08 0-.08-.06zm.67-1.42l-.06.2H61l.18-.13zM67.22 25.41l-.07.21a1.71 1.71 0 0 0-.25.22l-.39.61c-.13.19-.25.39-.37.6l-.14.18a.2.2 0 0 0 0 .21l-.1.1-.1.1a5.09 5.09 0 0 0-.3.5c-.1.17-.19.34-.28.51l-.21.4a1 1 0 0 1-.1.17.49.49 0 0 0 0 .17 2.76 2.76 0 0 0-.08.27.72.72 0 0 1-.15.27.44.44 0 0 0-.08.11.12.12 0 0 0 .08.11l.15-.26a1 1 0 0 0 .12-.23c.2-.39.38-.77.56-1.15s.36-.75.54-1.14l.68-1c.17-.27.33-.54.47-.81l.3-.27.28-.27.22-.17a.22.22 0 0 1 .27 0 .5.5 0 0 1 .36-.05H69c0 .14 0 .22.18.25a.73.73 0 0 1 .25.08.62.62 0 0 0 .27 0 1.15 1.15 0 0 1 .37 0 1.15 1.15 0 0 0 .37 0 .81.81 0 0 1 .31 0l.27.08a.58.58 0 0 0 .25.09.48.48 0 0 1 .29.25l.1.22.13.23a.65.65 0 0 1 .07.36v.09a.25.25 0 0 1 .08.27v.31a.54.54 0 0 0 0 .18.41.41 0 0 1 .07.4.42.42 0 0 0-.07.27.14.14 0 0 1 0 .17c-.06.06-.08.1-.08.13a.89.89 0 0 1 0 .23c0 .08.06.12.21.1a.45.45 0 0 1-.07.3 1.1 1.1 0 0 1-.06.26v.16a.5.5 0 0 0 0 .59.43.43 0 0 1 0 .16 1.07 1.07 0 0 1-.07.19.25.25 0 0 0 .07.25c-.11.08-.13.14-.07.2a.18.18 0 0 0 0 .22.18.18 0 0 1 .07.19.94.94 0 0 1-.1.23 1.08 1.08 0 0 0-.12.24.34.34 0 0 0 0 .2.67.67 0 0 1 0 .2.31.31 0 0 1 0 .23h-.36v.63l.09.07.09.06v.09l-.09.1a.38.38 0 0 1 0-.15 2.49 2.49 0 0 0-.11.29.23.23 0 0 0 .06.25v.11a.21.21 0 0 1-.18.07h-.07l-.08.06h.11a.08.08 0 0 1 0 .11.14.14 0 0 1-.12.09.34.34 0 0 0-.27.23.59.59 0 0 0-.14.27l-.54 1.21-.06.2v.16l-.54.87h-.41l-.1.13h-.14c-.09.07-.06.18.07.31l.29-.29q-.09.27-.21.54a2.55 2.55 0 0 1-.33.52v-.08c0-.06 0-.09-.07-.09l-.06.07v.02a.29.29 0 0 1 .08-.24 2.17 2.17 0 0 1 .07-.24.62.62 0 0 0-.07-.19.17.17 0 0 1 0-.21.56.56 0 0 1 .2-.54v.09a.21.21 0 0 0 0 .11 3.09 3.09 0 0 1 .14-.32.42.42 0 0 0 0-.31q0-.18.24-.33l.16-.07a1.79 1.79 0 0 0 .22-.81.21.21 0 0 1 .12-.25.06.06 0 0 0 0-.06.06.06 0 0 1 0 .06.22.22 0 0 0-.16 0 .57.57 0 0 0-.16.15c0 .06-.14.06-.15.09a.61.61 0 0 0-.07.14 1 1 0 0 1-.07.15.59.59 0 0 0-.13.29.61.61 0 0 0 0 .27l.18-.07c-.05.08-.1.15-.15.24l-.14.23.07-.2c-.11.16-.22.32-.32.49a1.5 1.5 0 0 0-.18.5h-.24a.35.35 0 0 0-.12.15.64.64 0 0 0-.06.18.33.33 0 0 1-.07.13.35.35 0 0 0-.12.23 1.14 1.14 0 0 1-.06.25l.16-.08a.24.24 0 0 0 .09-.08 1 1 0 0 1 .23-.39.53.53 0 0 0 .15-.42v.06c-.1.21-.21.42-.31.64s-.22.45-.34.71c.17-.12.31-.23.43-.33a1 1 0 0 0 .27-.37.15.15 0 0 1 .17-.1l-.13.2a.82.82 0 0 0-.12.2V38h.11l-.09.14-.09.2.36-.27-.48.87-.49.88-.09.2-.09.18a1.86 1.86 0 0 1-.29.49l-.38.47c0 .06-.09.12-.14.17a.31.31 0 0 0 0 .19.2.2 0 0 1-.1.15.3.3 0 0 1-.17.12.71.71 0 0 0-.42.19 2.48 2.48 0 0 0-.25.3 1.36 1.36 0 0 1-.63.53l-.48.23a2.46 2.46 0 0 1-.48.16l-.24.06-.23.09a2 2 0 0 1-.34.12h-.34a3.08 3.08 0 0 0-.74.11h-.72a.77.77 0 0 1-.56 0 2.35 2.35 0 0 1-.43-.19l-.23-.14a.39.39 0 0 1-.15-.26.19.19 0 0 0-.11-.14l-.18-.09a.28.28 0 0 1-.18-.36.62.62 0 0 0 0-.33 1.25 1.25 0 0 0-.08-.32.54.54 0 0 1 0-.18v-.2a.83.83 0 0 0 .07-.67.81.81 0 0 1 .14-.83.81.81 0 0 0 .18-.7.81.81 0 0 1 0-.22.75.75 0 0 0 .09-.3.68.68 0 0 1 .11-.31.87.87 0 0 0 .14-.27l.09-.27v-.13a.33.33 0 0 1 0-.14.54.54 0 0 0 0-.18.24.24 0 0 1 0-.28 1 1 0 0 0 .14-.3l.09-.37.09-.37a.6.6 0 0 1 .06-.19c0-.06.07-.1.16-.15a.22.22 0 0 0 .14-.18l.27-.61v.21h.07a1.22 1.22 0 0 1 0-.27h-.14l.21-.21a.5.5 0 0 0 .08-.26l-.17.13a.72.72 0 0 1 .18-.45l.37-.07a.76.76 0 0 0 0-.33l-.14.11a.91.91 0 0 1 .13-.26.72.72 0 0 0 .12-.21 1.41 1.41 0 0 1 .29-.4.63.63 0 0 0 .16-.26 2.33 2.33 0 0 1 .11-.28l.27-.68a.69.69 0 0 0 0-.13.76.76 0 0 1 .12-.55l.35-.53a.78.78 0 0 0 .11-.2 2.19 2.19 0 0 1 .23-.6 6.28 6.28 0 0 0 .27-.59 3.77 3.77 0 0 1 .35-.73 7.24 7.24 0 0 0 .41-.71c.13-.25.28-.51.45-.77a5.23 5.23 0 0 1 .56-.75 1.08 1.08 0 0 0 .21-.13 1.29 1.29 0 0 1 .63-.63l.25-.14c.16-.1.27-.09.33 0a.28.28 0 0 1 0 .18.09.09 0 0 0 0 .07zm-6.84 13.95a.09.09 0 0 0 0 .07h.06zm.81-3a.09.09 0 0 0 0-.07.09.09 0 0 1 0 .07zm.24-.2a1.14 1.14 0 0 1-.09.26h.07a1.14 1.14 0 0 0 .09-.26zm.99-.18l.1-.17a.21.21 0 0 0-.05-.14.15.15 0 0 1 0 .18q-.09.09 0 .15zm.25-.56h.07a.33.33 0 0 1 0-.14.33.33 0 0 0 0 .14zm.13.52v.04a.06.06 0 0 0 0-.09zm6.78-6.54s-.06-.07-.06-.09a.53.53 0 0 1 0-.25c0-.09-.08-.11-.24-.09s0 0 0-.11a.33.33 0 0 1 0-.14v-.15a.17.17 0 0 1 0-.1.17.17 0 0 0 0-.1.36.36 0 0 1-.08-.3.56.56 0 0 1 .08-.35 2 2 0 0 1 0-.24c0-.08 0-.14-.1-.19a.06.06 0 0 1 0-.06.09.09 0 0 0 0-.07 1.82 1.82 0 0 0 0-.33.3.3 0 0 0-.19-.24v-.11a.21.21 0 0 0 0-.2.31.31 0 0 1-.2-.11l-.19.16a.44.44 0 0 0-.12.15.47.47 0 0 0-.09.22l-.09.21a1 1 0 0 1-.21.19.72.72 0 0 0-.18.21c-.1.21-.2.43-.31.64s-.22.43-.34.64l-.19.34-.17.34a3.47 3.47 0 0 0-.31.68 2.12 2.12 0 0 1-.36.66 1 1 0 0 1-.11.17l-.14.17-.09.14a.11.11 0 0 0 0 .11.26.26 0 0 1 0 .33.6.6 0 0 0-.16.34 1.18 1.18 0 0 1-.29.63.58.58 0 0 0-.14.33.9.9 0 0 1-.09.32.76.76 0 0 0-.11.14v.07a.1.1 0 0 1-.05.08 1.07 1.07 0 0 0-.22.68.76.76 0 0 1 .17-.14.57.57 0 0 1-.2.38.62.62 0 0 0-.2.42.73.73 0 0 1-.12.41.14.14 0 0 1 0 .2.94.94 0 0 0-.12.22.51.51 0 0 0-.07.17v.33a.26.26 0 0 1-.1.13.92.92 0 0 0-.34.61 2.24 2.24 0 0 1-.36 1 .06.06 0 0 1 0 .06l.22-.23a1.82 1.82 0 0 1-.07.25 1.39 1.39 0 0 1-.12.28.4.4 0 0 0-.06.26.85.85 0 0 1-.29.67.09.09 0 0 1 0 .07.09.09 0 0 0 0-.07c.21.14.16.33-.15.59a.23.23 0 0 1-.02.25 1.22 1.22 0 0 0 0 .27 1.22 1.22 0 0 1 0 .27l-.06.34v.61a2.29 2.29 0 0 0 .11.58q0 .18.12.21a.78.78 0 0 0 .33-.07 1.44 1.44 0 0 0 .25-.18l.13-.15a.53.53 0 0 1 .14-.12 2 2 0 0 0 .41-.41 1.77 1.77 0 0 1 .42-.4v-.06a.11.11 0 0 1 0-.08c.08-.15.15-.3.24-.45a2.36 2.36 0 0 1 .28-.42q.19-.3.39-.57c.13-.19.25-.39.37-.6a1.83 1.83 0 0 0 .08-.25c0-.09.09-.15.21-.2l.18-.4a.92.92 0 0 1 .26-.38l.07-.14a1.3 1.3 0 0 0 .22-.46.8.8 0 0 1 .3-.44.06.06 0 0 0 0-.06c.06-.12.12-.25.17-.37l.15-.37c.07-.17.14-.33.19-.49a3.48 3.48 0 0 1 .21-.48 1.27 1.27 0 0 0 .18-.37c0-.12.08-.24.11-.37a3.59 3.59 0 0 1 .12-.47 2.14 2.14 0 0 1 .2-.47.28.28 0 0 0 0-.18.55.55 0 0 1 0-.36 1.65 1.65 0 0 1 .11-.36 1.27 1.27 0 0 1 .07-.37 2.38 2.38 0 0 1 .06-.37.65.65 0 0 0 0-.34.36.36 0 0 1 .13-.34q-.08-.09 0-.12l.14-.08v-.07h-.22a.49.49 0 0 1 0-.17.49.49 0 0 0 0-.17 1.22 1.22 0 0 1 0 .27.34.34 0 0 0 .09-.19v-.2a.06.06 0 0 0 0-.06h-.07v-.16a.58.58 0 0 0 .21-.07q.09 0 .06-.18l.07-.06v.13zm-6.65 5.18H63a.33.33 0 0 1 0-.14.34.34 0 0 0 0 .14zm.33-.83a1 1 0 0 1 .07-.15.11.11 0 0 0 0-.15c-.09.08-.12.13-.1.17a.31.31 0 0 1 .03.13zm.12 2.42a.09.09 0 0 0 0 .07zm.69-4.74c-.09.18-.18.36-.28.54a1.78 1.78 0 0 0-.21.54 3.38 3.38 0 0 0-.11.34.75.75 0 0 1-.09.33 7.23 7.23 0 0 0 .42-.89 3.11 3.11 0 0 0 .2-.41l.12-.4zm.07.81a.09.09 0 0 0 0 .07zm.43-1.66a.74.74 0 0 0-.16.19.49.49 0 0 0 0 .24l.07-.21a.66.66 0 0 1 .06-.2zm.27-1.44a.6.6 0 0 0-.21.31 3.38 3.38 0 0 1-.11.34.61.61 0 0 0 .28-.33l.06-.34a.09.09 0 0 1 0-.07.09.09 0 0 0 0 .07zm1.3 11.63h.07a.09.09 0 0 0 0-.07.31.31 0 0 1-.09.07zm1.23-1.7a.42.42 0 0 1-.09-.14.78.78 0 0 0 .22-.26 1.55 1.55 0 0 0 0-.43l-.08.1v.08q-.18.33-.39.66a4.28 4.28 0 0 0-.37.66l-.15.25a.94.94 0 0 0-.12.22.09.09 0 0 0 0 .07v.07c.07-.08.11-.12.11-.14l.09-.2a.3.3 0 0 1 .2-.13c.11.12.18.17.22.16a.79.79 0 0 0 .23-.19c.12-.12.22 0 .16.11l-.07.14a1.34 1.34 0 0 1-.17.31 1.3 1.3 0 0 0-.14.39.69.69 0 0 1 .11-.13l.09-.08.09-.18a.37.37 0 0 1 .13-.15 1.63 1.63 0 0 0 .37-.46l.28-.49a2.14 2.14 0 0 0 .2-.32.94.94 0 0 0 .07-.37l-.07.1a.16.16 0 0 0-.06.08H68a.25.25 0 0 0-.17 0 .91.91 0 0 0-.26.13l-.26.18zm-.85-12.85a.69.69 0 0 1 .11-.13h-.06l-.12.13zm.25 14v.14a.07.07 0 0 0 .07-.07zm.18.18l.09-.13a.28.28 0 0 0-.05-.18v.31zm.38-.42v-.26a2.68 2.68 0 0 1 .07-.27h-.13c-.2.06-.26.14-.18.25l.1.12zm.04-.74v.06l.16-.06zm.41.29a.19.19 0 0 1 0 .13v.14a.21.21 0 0 1 0-.11l.11-.12zm.11.04a.5.5 0 0 0 0-.13H68a.09.09 0 0 1 0 .07zm0-2.2l.1-.06.07-.13a1.4 1.4 0 0 0-.09.29zm.58-.76v-.07l-.09.07.09-.06zm.18.58a.09.09 0 0 0 0 .07zm.16-1.43a.29.29 0 0 0 0 .13h.07a.29.29 0 0 1 0-.13zm0 1.16v-.06a.45.45 0 0 1 0 .12zm.09 1v-.14l-.07.06zm.56-11.21a.33.33 0 0 1 0 .14.33.33 0 0 0 0-.14zm0 8.13q.18-.09.18-.15a.23.23 0 0 0-.06-.12 1.48 1.48 0 0 1-.12.29zm.18 1.82c.11.07.09.16-.06.25v-.13zm0-3l.09-.07zm0 3l.13-.33v-.18a.22.22 0 0 1-.08-.2.67.67 0 0 1 0-.2l.11-.19c0-.06.07-.13.1-.2a.27.27 0 0 1 .12.36l-.21.46-.22.44h-.07zm.36-2.47a.51.51 0 0 0-.17.24 1.13 1.13 0 0 0 0 .26.7.7 0 0 0 .19-.26 1.13 1.13 0 0 0 0-.26zm0-.71h-.06a.07.07 0 0 0 .07-.07v.07zm.14-.5v-.21h-.07v.21zm.07 1.43v-.1h-.09s-.07 0-.07.06 0 .06.07 0l.09-.07zm0 .39l.12-.18.17-.21c-.09.26-.16.49-.22.7-.12-.1-.18-.2-.16-.29s.07-.11.13 0zm0-5.3a.33.33 0 0 1 0 .14.33.33 0 0 0 .04-.14zm0 3.99a.09.09 0 0 1 0-.07.09.09 0 0 0 .04.07zm.43.94a.39.39 0 0 1 0-.3 1.18 1.18 0 0 1 .1-.3h.14a.71.71 0 0 1-.23.58zM71 33.4a2.32 2.32 0 0 0 .24-.47.53.53 0 0 0 0-.25c-.06.1-.12.2-.19.3l-.12.35zm.33-4.42v.11zm.18 2.58a.22.22 0 0 0 0 .32.61.61 0 0 0 0-.19zm.49-3.78a.29.29 0 0 0 0-.13.29.29 0 0 1 0 .13zM87 42.41a2.29 2.29 0 0 0 0 .37 2.67 2.67 0 0 1 0 .4l-.18.15-.29.16-.08.08h-.08a3.19 3.19 0 0 0-.59.21 1 1 0 0 1-.6.08.52.52 0 0 0-.35.14 1.44 1.44 0 0 1-.25.18l-.27.16h-.65s-.06-.15-.09-.24a.32.32 0 0 1 .07-.3.55.55 0 0 0 .06-.4 2.09 2.09 0 0 1 0-.5 1.76 1.76 0 0 1 .12-.49.57.57 0 0 0 0-.26.57.57 0 0 1 0-.26 2 2 0 0 0 0-.59 1.12 1.12 0 0 1 .13-.6.41.41 0 0 0 0-.22.86.86 0 0 1-.06-.23 3.23 3.23 0 0 1 0-.44v-.43a.18.18 0 0 1 .08-.15.16.16 0 0 0 .09-.18.13.13 0 0 0-.06-.07c0-.07-.06-.14-.08-.2s0-.14.08-.25a.07.07 0 0 0 0-.09.21.21 0 0 1 0-.11h-.23a2.74 2.74 0 0 1-.88.28l-.87.1a.54.54 0 0 0-.25.06.82.82 0 0 0-.2.25.31.31 0 0 0 .18-.09 1 1 0 0 0-.06.25.85.85 0 0 1-.09.22.65.65 0 0 1-.17.16l-.21.16h-.06a.06.06 0 0 0 0 .06c-.06.13-.12.27-.17.41l-.19.49.14-.14.13-.11a.33.33 0 0 0 0 .14.21.21 0 0 1 0 .11 1.34 1.34 0 0 0-.17.31.55.55 0 0 1-.23.29c-.11.11-.14.2-.09.29a.26.26 0 0 1 0 .21 4 4 0 0 0-.22.47 2.46 2.46 0 0 1-.14.47c0 .17-.12.2-.32.16a.42.42 0 0 1-.36.27h-.55a1.7 1.7 0 0 1-.59-.1.17.17 0 0 0-.14 0 .24.24 0 0 1-.09.06l-.09.07a.81.81 0 0 1-.57.25.47.47 0 0 1-.44-.25 1.16 1.16 0 0 1 .18-1.2 1.27 1.27 0 0 0 .18-.37c0-.13.1-.25.16-.37v-.21a.91.91 0 0 0 .18-.21.62.62 0 0 0 .09-.26.67.67 0 0 1 .07-.24l.14-.27a2.35 2.35 0 0 0 .14-.37.91.91 0 0 1 .24-.37l.13.06q.21-.2 0-.24c-.14 0-.1-.07-.07-.16a3.45 3.45 0 0 1 .14-.34 2.41 2.41 0 0 0 .15-.33l.07-.07a1.13 1.13 0 0 0 .22-.27 1.43 1.43 0 0 0 .09-.27.33.33 0 0 1 0-.14c.12-.22.23-.44.33-.67a3.39 3.39 0 0 1 .41-.65l.06-.18a2 2 0 0 0 .12-.34.54.54 0 0 1 .42-.38 2.41 2.41 0 0 1 0-.38.69.69 0 0 1 .27-.38.38.38 0 0 0 .15-.24 2 2 0 0 1 .08-.26l.13-.3c0-.1.1-.2.16-.3a.37.37 0 0 0 .07-.14q0-.09.15-.06v-.12a.21.21 0 0 1 0-.11 1.87 1.87 0 0 1 .15-.32l.17-.31a.25.25 0 0 0 .27-.09.5.5 0 0 1 .27-.18.29.29 0 0 0-.36-.12c.06-.1.11-.2.17-.29a1.59 1.59 0 0 0 .12-.27.3.3 0 0 1 .19-.14.31.31 0 0 0 .17-.13.31.31 0 0 0 0-.19.17.17 0 0 1 0-.14.64.64 0 0 0 .2-.39.91.91 0 0 1 .13-.38.92.92 0 0 0 .16-.31 1.06 1.06 0 0 1 .16-.34 3.72 3.72 0 0 1 .19-.34l.21-.31.27.19a.21.21 0 0 0 .11 0 1.39 1.39 0 0 0 .25-.38l.07-.21v-.2a.6.6 0 0 1 .36-.49v-.14a1.1 1.1 0 0 0 .38-.59 6.17 6.17 0 0 0 .11-.62 1.18 1.18 0 0 1 .14-.45c.07-.13.15-.28.22-.43a.21.21 0 0 1 .15-.11.25.25 0 0 1 .17 0 .43.43 0 0 1 .11.12l.13.13a1.88 1.88 0 0 0 .39-.67 1.35 1.35 0 0 1 .11-.34.58.58 0 0 1 .26-.37 2.71 2.71 0 0 1 .37-.21c.13-.06.2 0 .2.13l.07.41.38-.06.36-.06h.31V25.27a1.91 1.91 0 0 0-.06.33v.38l-.09.81-.09.81a.81.81 0 0 0 0 .38 2.3 2.3 0 0 1 0 .74 4.94 4.94 0 0 1-.18.76 1.4 1.4 0 0 0 0 .5 2.29 2.29 0 0 1 0 .64l-.09.64a4.71 4.71 0 0 1-.08.5 1.51 1.51 0 0 1-.08.51c-.08.17 0 .5-.08.74s0 .49-.08.74a1.67 1.67 0 0 0 0 .63 2.25 2.25 0 0 1-.06.63c-.06.21 0 .21 0 .31v1.3a.13.13 0 0 0 0 .12 1.11 1.11 0 0 1 .07.54 3.43 3.43 0 0 0-.07.56v.45a1.09 1.09 0 0 0 0 .44v.09l-.48 1.16-.18 1.18-.2 1.35zm-6.6-6.49a.06.06 0 0 0 0-.06.13.13 0 0 1 0 .06zm4.13-5.12c0-.09.09-.18.14-.28a1 1 0 0 0 .13-.28 2.09 2.09 0 0 0 0-.5 2 2 0 0 1 .06-.58l-.09.13v.08c-.14.3-.28.59-.43.87s-.29.58-.43.88c-.07.15-.14.3-.2.45s-.12.3-.18.47a2.33 2.33 0 0 0-.11.28 2.33 2.33 0 0 1-.11.28c-.08.18-.16.36-.25.54l-.27.54a2.12 2.12 0 0 1-.11.21.4.4 0 0 0-.09.21 4.58 4.58 0 0 1-.33.87q-.21.42-.39.84a.26.26 0 0 0 .15-.12 1.09 1.09 0 0 1 .08-.15q.32-.63.6-1.26c.2-.41.4-.83.61-1.25.1-.2.2-.39.28-.59a1.88 1.88 0 0 1 .41-.56 1 1 0 0 1 .11-.17.62.62 0 0 0 .11-.17l.18-.37.18-.37zm-1.48 6.43a2.13 2.13 0 0 0 1-.12.57.57 0 0 0 0-.26 1 1 0 0 1 0-.25 1.13 1.13 0 0 1 0-.26.56.56 0 0 1 .17-.26v-1a.21.21 0 0 1 0-.11h.14a.09.09 0 0 0 0-.07.06.06 0 0 1 0-.06c-.11 0-.17 0-.2-.08s-.06-.15-.09-.24a2.59 2.59 0 0 0-.14.29.41.41 0 0 1-.22.23.15.15 0 0 0-.14.11v.27a.12.12 0 0 1-.09.11c-.07.14-.15.27-.21.41a1.5 1.5 0 0 0-.15.42 1.63 1.63 0 0 1-.18.43c-.16.22-.14.36.07.4zm1.32-3.71h.19a.54.54 0 0 0 .1-.16.28.28 0 0 0-.28.16zm0 1.71v.06h.07zm.14-3.78l.09-.16.09-.17h-.07a.44.44 0 0 0-.07.33zm.56-1.47l.09-.09-.07.07a.09.09 0 0 0 0 .07zm1.74-4l-.35.46a.39.39 0 0 0 0 .46.11.11 0 0 1 0 .08.11.11 0 0 0 0 .08v.27a1.13 1.13 0 0 1 0 .26 1.89 1.89 0 0 0 0 .67 1.83 1.83 0 0 1 0 .66c0 .12 0 .18.11.18a.09.09 0 0 0 0 .07.09.09 0 0 1 0-.07l.14-1.28.09-.44a2.81 2.81 0 0 0 0-.41v-.19a.67.67 0 0 1 0-.2 1.48 1.48 0 0 0 .12-.29.29.29 0 0 0-.11-.31zM89 39.63l-.06-.09a.24.24 0 0 1 0-.12 2.15 2.15 0 0 1 0-.62v-.21l.06-.21a3.82 3.82 0 0 1 .11-.57 5 5 0 0 0 0-.55 1.27 1.27 0 0 1 .25-.64.83.83 0 0 0 .16-.5 1.22 1.22 0 0 1 0-.27.36.36 0 0 0 0-.25.39.39 0 0 1 0-.3 2.26 2.26 0 0 1 .13-.33.18.18 0 0 1 .08-.14 1.09 1.09 0 0 0 .08-.15v-.16c0-.02-.06-.15.06-.26a.06.06 0 0 0 0-.06v-.08a3.76 3.76 0 0 1 .28-.82.15.15 0 0 0-.08-.16c-.08 0 0-.09 0-.18l.16-.77v-.07a.62.62 0 0 1 .19-.12.18.18 0 0 0 .09-.12.12.12 0 0 0 0-.14.48.48 0 0 1 0-.54v-.11a.21.21 0 0 1 .13-.05s.08 0 .1-.12a.21.21 0 0 0 0-.19l.06-.07a1.4 1.4 0 0 1 .17-.47 3.53 3.53 0 0 0 .15-.46c.09-.31.2-.62.32-.92s.24-.6.35-.9l.09-.3a1.18 1.18 0 0 1 .1-.3q.18-.36.33-.72a6.67 6.67 0 0 1 .35-.71l.07-.09.06-.09.29-.38.29-.36a2 2 0 0 1 .19-.22 2.09 2.09 0 0 0 .2-.22l.18-.2.15-.19a3.89 3.89 0 0 1 .48-.43c.17-.11.34-.22.52-.32a3.26 3.26 0 0 1 .72-.31c.24-.06.48-.14.73-.22a3 3 0 0 1 .66-.1 2.39 2.39 0 0 0 .65-.06.17.17 0 0 1 .17 0 1.85 1.85 0 0 1 .64.75 1.89 1.89 0 0 1 .12 1.1 4.34 4.34 0 0 0 0 .51 1.28 1.28 0 0 1-.1.55c-.06.22-.12.44-.19.66s-.13.44-.19.66a.67.67 0 0 1-.32.45l-.07.05a.12.12 0 0 0-.07.07.81.81 0 0 1-.24.31 1.35 1.35 0 0 0-.26.32H97a.76.76 0 0 0-.3 0 .14.14 0 0 1-.17-.09c0-.06 0-.09-.13-.08a.67.67 0 0 0-.23.1l-.12.11s-.07.06-.1.06a.71.71 0 0 0-.49.37c-.06.14-.15.2-.27.17s0-.11 0-.21a.43.43 0 0 0-.16 0h-.18a.26.26 0 0 1-.11-.07v-.17c0-.09.23-.13.24-.24v-.25a1.3 1.3 0 0 1 .08-.34l.16-.36c.07-.14.13-.29.19-.43a.72.72 0 0 0 0-.46.77.77 0 0 1 0-.37 2.5 2.5 0 0 0 .06-.38 1.22 1.22 0 0 0 0-.27l-.2.29a1.09 1.09 0 0 0-.14.23c-.13.26-.26.52-.4.77a5.58 5.58 0 0 0-.35.79 2.06 2.06 0 0 0-.12.35 1.53 1.53 0 0 0-.07.36 1 1 0 0 1-.08.29c0 .11-.09.21-.13.33l-.08.25-.1.25-.16.36c-.06.11-.11.24-.17.37s-.08.24-.13.36a1.53 1.53 0 0 0-.08.37l-.08.42a1.28 1.28 0 0 1-.07.28v.12a.61.61 0 0 1-.06.35 1.11 1.11 0 0 0-.13.36l-.17.77a.29.29 0 0 0 0 .13.45.45 0 0 0 .28 0 1.86 1.86 0 0 0 .29-.27.41.41 0 0 0 .12.17.26.26 0 0 0 .21 0 .75.75 0 0 1 .54-.18 1.49 1.49 0 0 0 .51-.06 1.52 1.52 0 0 1 .56-.08 2.33 2.33 0 0 0 .53-.06 3.43 3.43 0 0 1 .56-.07 1.12 1.12 0 0 0 .65-.18.69.69 0 0 0 .35 0 .29.29 0 0 1 .31.06.3.3 0 0 1 .13.21 1 1 0 0 0 0 .35 1.54 1.54 0 0 1-.06.43 2.35 2.35 0 0 1-.17.44 2.25 2.25 0 0 0-.22.56 2.89 2.89 0 0 1-.14.58c0 .19-.06.22-.08.32a.66.66 0 0 1-.08.32v.13s0 .07-.11.07a1 1 0 0 0 0 .34.06.06 0 0 0 0 .06.76.76 0 0 1-.11.14.71.71 0 0 0-.1.14.33.33 0 0 0 0 .14v.27a.33.33 0 0 1 0 .14v.09s-.26.17-.26.29a.49.49 0 0 1-.09.33.91.91 0 0 0-.12.31.51.51 0 0 1-.08.33 1.9 1.9 0 0 0-.15.44 1.22 1.22 0 0 1-.27.41.33.33 0 0 0 0-.14.33.33 0 0 1 0-.14l.09-.28a1.38 1.38 0 0 0 .08-.29 4.37 4.37 0 0 0 .12-.52 3.12 3.12 0 0 1 .11-.53 1 1 0 0 0 .07-.44 1.41 1.41 0 0 1 0-.41.57.57 0 0 1-.15.3.27.27 0 0 0-.06.32.6.6 0 0 1-.09.15.43.43 0 0 0 0 .16.41.41 0 0 1 0 .22.86.86 0 0 1-.18.2v.2a.13.13 0 0 0 0 .12.51.51 0 0 1 0 .3 1.07 1.07 0 0 1-.1.32l-.41.95a.44.44 0 0 0-.08.11l-.07.13v-.23a.06.06 0 0 0-.08 0l-.07.07h-.09s-.06 0-.08-.13a1.76 1.76 0 0 1-.15.56l-.16.48h.07a.6.6 0 0 1 .09-.15.6.6 0 0 0 .09-.15l.11-.05a.17.17 0 0 0 .1 0 1.38 1.38 0 0 1-.08.45 1.2 1.2 0 0 1-.29.45h.2a.46.46 0 0 1 0 .38l-.2.38a1.94 1.94 0 0 1-.23.33l-.29.31a1.87 1.87 0 0 1-.29.2l-.56.27-.57.25-.34.15-.34.18a2.16 2.16 0 0 1-.92.32 2 2 0 0 1-.76-.06l-.24-.14a.34.34 0 0 1-.2-.22h-.1l-.13-.08a.27.27 0 0 1-.1-.11 2.49 2.49 0 0 1-.11-.29.84.84 0 0 0-.13-.27.63.63 0 0 1-.11-.48 2.35 2.35 0 0 0-.1-.59 2.85 2.85 0 0 1-.12-.58 1 1 0 0 0 0-.24.89.89 0 0 1 0-.23 3.84 3.84 0 0 0 0-.48v-.45a.24.24 0 0 1 0-.12l.08-.12zm4.39-5.75a.3.3 0 0 0 .08-.08.44.44 0 0 0-.36.15 2.34 2.34 0 0 1-.32.31l-.12.42a2.07 2.07 0 0 1-.1.43v.36a.74.74 0 0 1-.09.36.53.53 0 0 0 0 .57v.14a1.56 1.56 0 0 0-.15.6 1.73 1.73 0 0 1-.07.59.81.81 0 0 0 0 .22c0 .06 0 .13-.15.19v.48a.76.76 0 0 0-.11-.14.44.44 0 0 1 .08-.11.3.3 0 0 1-.07.23l-.1.22a1.81 1.81 0 0 0-.09.31c0 .1 0 .17.13.23a.16.16 0 0 1 .06.13.81.81 0 0 1 0 .22.82.82 0 0 0-.01.27l.1.73a.45.45 0 0 1 0 .23.54.54 0 0 0-.08.35v.31a.29.29 0 0 0 .14.28 1 1 0 0 0 .35 0l.09-.15.1-.12a1.27 1.27 0 0 1 .13-.19c0-.06.1-.13.16-.19a3.07 3.07 0 0 0 .21-.38l.25-.37a1.13 1.13 0 0 0 .17-.39 1.42 1.42 0 0 1 .12-.4 1 1 0 0 1 .07-.15 3.69 3.69 0 0 1 .19-.56l.18-.46a1.36 1.36 0 0 0 .07-.35 1.55 1.55 0 0 1 .08-.36 1.62 1.62 0 0 0 .12-.69 2.29 2.29 0 0 1 .23-1 .86.86 0 0 0 .06-.23.55.55 0 0 1 0-.31c0-.11.06-.23.08-.34a3.15 3.15 0 0 0 .09-.42.89.89 0 0 1 .07-.42v-.42a.74.74 0 0 0 0-.21c0-.2-.07-.29-.26-.28h-.31l-.27.06-.27.08a.55.55 0 0 0-.24.15.36.36 0 0 1-.16.11h-.08zM92 40.27a.39.39 0 0 0 0 .26 1 1 0 0 0 .09.21.21.21 0 0 1 0-.24.15.15 0 0 0 0-.21zm-.86-6.09v.07c0 .07-.02-.06 0-.07zm2.93 7.29a1 1 0 0 0 .35-.44l-.07-.12c0 .09-.1.18-.14.27a1.65 1.65 0 0 1-.13.29zm-1.52-12.69v-.07a.09.09 0 0 1 0 .07zm.13-.31v-.21h-.07v.21zm3.16 8a1.64 1.64 0 0 0-.14.39.49.49 0 0 0 .06.17.88.88 0 0 1 .1-.27.42.42 0 0 0 0-.31zm.35.09a.6.6 0 0 0 .09-.15h-.06l-.1.15zm0-.51a.24.24 0 0 0 0-.12v-.06a.3.3 0 0 0 0 .16zm.56.18h.06v-.2h-.07a.9.9 0 0 0-.06.22zM107.48 24.11c-.11.06-.12.12 0 .18s0 .05 0 .05v.08a1.07 1.07 0 0 1-.22.37.29.29 0 0 1-.13.05h.05l-.05.08h.16c0 .13-.12.24-.41.32h.39l-.15.06H107a1.55 1.55 0 0 0 .29.14l-.29.05h.12v.07l-.17.12s.07.06 0 .1l-.06.13a.37.37 0 0 1-.26.12l-.46.09-.46.09h-.07a1.19 1.19 0 0 1-.41.11 2.79 2.79 0 0 0-.4.07h-.21l-.21.06h-1.94a.87.87 0 0 1-.07.17.33.33 0 0 0 0 .14 1.31 1.31 0 0 1-.07.44 3.63 3.63 0 0 0-.1.45 4.23 4.23 0 0 1-.11.62c0 .2-.06.41-.1.63s-.07.4-.11.59-.08.4-.11.6a.67.67 0 0 0 0 .2.33.33 0 0 0 0 .14v.16a.3.3 0 0 0 .17-.16v-.21a.89.89 0 0 0 0-.23.3.3 0 0 1 .08-.24 1.72 1.72 0 0 0 .21-.43 2.34 2.34 0 0 0 .07-.45 2.33 2.33 0 0 1 .08-.36 2.29 2.29 0 0 1 .12-.37.49.49 0 0 0 0 .17v.16h.06l.09-.29a2 2 0 0 1 .08-.26s0-.05.07-.05.25-.09.29-.07 0 .11 0 .25l-.09.42a3.15 3.15 0 0 0-.09.42v.62l-.1.77a.35.35 0 0 0 .14.34.24.24 0 0 1 .08.24v1.12a.94.94 0 0 0 .47 0l.45-.11.29-.06h.29a1.82 1.82 0 0 0 .33 0h.35a.18.18 0 0 1-.05.07v.1c0 .07 0 .11.09.1s.14 0 .14.07a.61.61 0 0 1 0 .19v.06l-.11.1-.16.1a.68.68 0 0 1 .2.07l.19.08a.26.26 0 0 1-.19.16.28.28 0 0 0-.18.12l.24.12a1.07 1.07 0 0 1-.14.16h.08a.19.19 0 0 1 .15 0v.23h.08l-.16.22-.13.18-.7.24-.73.24c0 .09.06.11.13.08a.18.18 0 0 1 .2 0l-.21.09a.66.66 0 0 1-.2.06l-.62.11a3.34 3.34 0 0 0-.62.1 1.86 1.86 0 0 0-.24.72 3.31 3.31 0 0 1-.32 1.27 1.12 1.12 0 0 0-.09.44 3.81 3.81 0 0 1-.07.59 2.82 2.82 0 0 1-.13.6l-.26 1a.23.23 0 0 0 0 .2.33.33 0 0 0 0 .14v.41a.91.91 0 0 1-.07.42.19.19 0 0 0 .1.17.62.62 0 0 0 .38 0 2.17 2.17 0 0 0 .42-.11 2 2 0 0 1 1.23 0l.1.07v.1a.42.42 0 0 0 0 .27.45.45 0 0 1 0 .23.25.25 0 0 1 0 .17l-.08.21a.23.23 0 0 0 0 .2v.02l-.06.08v.09l.35-.05-.15.22a.5.5 0 0 1-.25.13h-.09v.06s0 .1-.07.11h-.12l-.14.06h-.27a.34.34 0 0 0-.12.06.54.54 0 0 1-.18.11h-.19l-.67.09h-.15a.55.55 0 0 1-.33.12h-.29a3.75 3.75 0 0 1-1.22-.08.27.27 0 0 1-.16-.1l-.13-.15a1.3 1.3 0 0 1-.19-.22.16.16 0 0 0-.21-.09.31.31 0 0 1-.23 0 .74.74 0 0 0-.21 0c-.09 0-.15 0-.17-.07l-.41.62a.5.5 0 0 1-.08-.2v-.19a.68.68 0 0 1 .06-.35c.06-.11 0-.23 0-.35a1.31 1.31 0 0 0 0-.28.62.62 0 0 1 0-.27c.09-.3.17-.6.23-.88s.11-.58.16-.88a.12.12 0 0 1 .11-.09c.07 0 .09-.06.06-.14a.33.33 0 0 1 0-.24 2.5 2.5 0 0 1 .1-.49 3.89 3.89 0 0 1 .12-.49 1.53 1.53 0 0 1 .17-.55c0-.05.06-.08.06-.1a.33.33 0 0 1 0-.24 1 1 0 0 1 .08-.25l.18-.64v-.2-.66a3.11 3.11 0 0 1 .16-.67.17.17 0 0 0 0-.1.17.17 0 0 1 0-.1l.13-.5.22-.85a3.15 3.15 0 0 0 .09-.42 3.15 3.15 0 0 1 .09-.42 8.28 8.28 0 0 0 .16-.84.63.63 0 0 1 .08-.23v-.33a.36.36 0 0 1 0-.21.09.09 0 0 0 0 .07.06.06 0 0 1 0 .06s0-.08-.08-.1a1.48 1.48 0 0 1 .12-.29.18.18 0 0 1-.11-.24 1 1 0 0 0 .06-.34v-.13l.15-.08a.31.31 0 0 1 0-.19c0-.08 0-.13-.08-.16s0 0 0-.06v-.08q.19-.13.18-.27v-.26h-.06c-.06 0-.06 0 0-.06s0-.06.08-.07a.16.16 0 0 0 .06-.08c0-.08.06-.15.08-.22a.14.14 0 0 0 0-.17.88.88 0 0 0 .29-.58h.14a1.31 1.31 0 0 1 0-.28h-.16a.25.25 0 0 1 0-.17.13.13 0 0 1 .07-.06l.07-.07a.51.51 0 0 0 .1-.24h-.09l-.08.06a.15.15 0 0 1 0-.16l.14-.11v-.07l-.06-.08h.18a.66.66 0 0 1 .06-.27.18.18 0 0 0-.07-.25.75.75 0 0 0 .15-.16l.17-.16-.08-.07v-.09c-.13-.13-.09-.27.1-.42a.53.53 0 0 0 .15-.34v-.44a1 1 0 0 1 .11-.44h1.62a.48.48 0 0 0 .31-.08.64.64 0 0 0 .47 0h.38a2.16 2.16 0 0 0 .36 0 .73.73 0 0 1 .36 0 .53.53 0 0 0 .25 0l.26-.1a.54.54 0 0 1 .21-.08.61.61 0 0 1 .19 0 .34.34 0 0 0 .34 0h.06c.06 0 0 .06 0 .1s0 .11.1.1h.31a.28.28 0 0 1 .2.18zM101 28.62c-.06.11-.07.18 0 .21a.12.12 0 0 1 .09.1h.06v-.13a.26.26 0 0 0-.07-.15zm.73 2.8h.07v-.14.14zm.07-.51c.06 0 0 .11 0 .21v-.14a.29.29 0 0 1 0-.09zm-.22-3.14v-.06a.09.09 0 0 0 0 .07zm.38-1.53a.33.33 0 0 0 0 .14.57.57 0 0 1 0-.14zm.68 2.78a.33.33 0 0 0 0-.14.36.36 0 0 1 0 .1zM13.23 19.81a.36.36 0 0 0-.15.15l-.12.14a2.23 2.23 0 0 0-.26.27l-.25.26c-.09.1-.18.19-.26.29l-.12.15-.14.14a.31.31 0 0 1-.09.07l-.08.08-.1.07a.31.31 0 0 0-.09.07 4 4 0 0 1-.78.43 1.56 1.56 0 0 1-.41.15l-.36.1H7.66a4.71 4.71 0 0 1-.92 0h-.38a.38.38 0 0 1-.15 0 .82.82 0 0 1-.21-.1l-.17-.1h-.12a2.21 2.21 0 0 1-.63-.51 1.92 1.92 0 0 1-.41-.67 1.34 1.34 0 0 0-.1-.38l-.09-.44v-1.09a2.32 2.32 0 0 1 .06-.38 1.21 1.21 0 0 1 .11-.37c0-.12.09-.23.13-.36a7.39 7.39 0 0 1 .73-1.32l.21-.09h.15s.12.17.07.46h.17l-.23.6c-.07.19-.15.39-.23.58a3.93 3.93 0 0 0-.19.58 5.41 5.41 0 0 0-.12.58 1.09 1.09 0 0 0 0 .36v.54a.25.25 0 0 0 0 .18.76.76 0 0 0 .17.32 1.42 1.42 0 0 0 .55.45 2.39 2.39 0 0 0 .37.15h1a1.68 1.68 0 0 1 .53.15l.15.07a.24.24 0 0 0 .14.05h.43a3.69 3.69 0 0 0 .46-.08 2.53 2.53 0 0 0 .48-.19.23.23 0 0 0 .1-.07l.1-.07.24-.07.26-.11.29-.13a3.42 3.42 0 0 0 .4-.26l.38-.3a2.73 2.73 0 0 0 .33-.35c.1-.12.2-.24.29-.37-.16.13-.31.25-.44.37a4.46 4.46 0 0 1-.43.33 2.48 2.48 0 0 1-.77.41l-.32.08-.3.09a4.22 4.22 0 0 1-.61.07h-1a.31.31 0 0 1-.1-.15.66.66 0 0 0-.17-.12l-.29-.07H7.1a.19.19 0 0 1-.1 0l-.16-.05-.17-.07.09.09a.39.39 0 0 1 .1.08l.22.12a1.43 1.43 0 0 1-.58-.12.74.74 0 0 1-.21-.13c0-.06-.11-.12-.15-.18S6 20.06 6 19.98a3 3 0 0 1 0-2.15 3.65 3.65 0 0 1 .25-.53c.09-.18.2-.35.31-.53a1.05 1.05 0 0 1 .2-.27 1 1 0 0 1 .24-.16 1.85 1.85 0 0 1 .7-.13h.65a.28.28 0 0 1 0 .22 3 3 0 0 1-.21.6 7.31 7.31 0 0 0-.48 1.28.73.73 0 0 0-.07.24.81.81 0 0 1 0 .22 1 1 0 0 0 0 .24h1.56a1.57 1.57 0 0 0 .37-.03.73.73 0 0 0 .24-.07l.21-.15.17-.12.2-.17c.14-.13.29-.28.45-.46l.51-.55a2.17 2.17 0 0 1 .24-.29l.1-.12v-.07l.11-.15a.64.64 0 0 1 .08-.14 1.08 1.08 0 0 0 .17-.71.41.41 0 0 0 .12-.14c.07-.07.11-.11.12-.15a2.33 2.33 0 0 0 .08-.38v-.79a1.28 1.28 0 0 0 0-.39 1.1 1.1 0 0 0-.05-.4 3.1 3.1 0 0 0-.08-.42l-.07-.44-.07-.36H9l-.26-.07h-.12a.23.23 0 0 1-.12-.06 2.23 2.23 0 0 1-.89-.63 1.88 1.88 0 0 1-.46-1v-.07a.09.09 0 0 1 0-.07v-.07a.11.11 0 0 1 0-.08v-.07a.09.09 0 0 1 0-.07v-.07a.09.09 0 0 1 0-.07.11.11 0 0 0 0-.08v-.12a.38.38 0 0 1 0-.15V9.37a.09.09 0 0 0 0-.07.09.09 0 0 1 0-.07v-.41a.54.54 0 0 1 .09-.27c0-.08.07-.16.11-.23a1.75 1.75 0 0 0 .38-.34l.07-.2a.49.49 0 0 0 0-.17 1.16 1.16 0 0 1 .2-.47c.09-.14.18-.28.26-.43v.07c.09-.13.19-.27.27-.41l.26-.39.29-.39a1.61 1.61 0 0 1 .33-.36 1.09 1.09 0 0 1 .14-.25 1.09 1.09 0 0 0 .13-.17l.23-.37.28-.37a.93.93 0 0 1 .16-.18l.18-.19.19-.14.19-.14a1 1 0 0 1 .2-.15l.08-.07.09-.07.09-.08.12-.07.22-.14c.32-.2.66-.39 1-.56l.29-.12h.34l.24-.07a5.76 5.76 0 0 1 1-.22 8.34 8.34 0 0 1 1 0 3.74 3.74 0 0 1 1 .17 3.27 3.27 0 0 1 .67.28 3.84 3.84 0 0 1 .56.41 2.41 2.41 0 0 1 .41.54.18.18 0 0 0 .05.07v.21a.38.38 0 0 1 0 .15.33.33 0 0 1 0 .14v.08l.05.07a.71.71 0 0 1 .1.14 2.37 2.37 0 0 1 .09.36.61.61 0 0 1 0 .19v.79a.54.54 0 0 1 0 .18v.1a2.23 2.23 0 0 1-.05.36v.36a.38.38 0 0 0 0 .15.34.34 0 0 0-.05.14.88.88 0 0 0-.05.15.33.33 0 0 0 0 .14.49.49 0 0 0-.06.17.2.2 0 0 1-.06.15.09.09 0 0 0 0 .07v.07l-.12.1a.38.38 0 0 0 0 .15.34.34 0 0 0-.05.14.64.64 0 0 1-.14.22l-.12.15-.1.09a.72.72 0 0 1-.2.09l-.18.06a.4.4 0 0 0-.18.07l-.15.07h-.2c-.07 0-.1 0-.1-.07a.38.38 0 0 0-.1-.29.2.2 0 0 0-.21 0 1.59 1.59 0 0 0-.29.15l-.1.14-.17.09-.31.14a1 1 0 0 1-.29.07.31.31 0 0 1-.13-.06l-.16-.13c-.14-.08-.22-.14-.22-.19a.09.09 0 0 0 0-.07.11.11 0 0 0 0-.08.09.09 0 0 0 0-.07.61.61 0 0 0 0-.19v-.11c0-.07-.05 0-.05-.07v-.13l.08-.07.07-.07a.11.11 0 0 0 0-.08v-.07l.07-.21a.17.17 0 0 1 0-.1v-1a.09.09 0 0 0 0-.07 2 2 0 0 0 0-.35 1.31 1.31 0 0 0 0-.28l-.07-.24a.5.5 0 0 0-.1-.19c-.05-.07-.09-.07-.12-.07h-.19a.12.12 0 0 0-.1.07.57.57 0 0 0-.22-.07H14a.17.17 0 0 0-.1 0l.15-.1-.34.19h-.15a.31.31 0 0 1-.09.07.09.09 0 0 1-.07 0h-.2a.51.51 0 0 0-.31.15.79.79 0 0 0-.2.31l.08-.06h.07l.1-.07-.1.1a.06.06 0 0 0-.06 0h-.11a1.16 1.16 0 0 0-.2.24l-.19.24a1.64 1.64 0 0 0-.2.26l-.32.67a2.48 2.48 0 0 0-.19.26c-.07.1-.13.2-.2.29a.32.32 0 0 0-.21.08l-.1.09-.1.12-.18.32a1 1 0 0 1-.2.29h.31a2.53 2.53 0 0 0-.12.36V8.94a.09.09 0 0 1 0 .07v.07s-.06.05-.08.05-.17.11-.17.14h.19a.31.31 0 0 1 .2-.07.49.49 0 0 1 .24 0h.17l.33-.05h1.57a3.37 3.37 0 0 1 1 .15l.2.07a.51.51 0 0 1 .17.07l.26.22a.58.58 0 0 1 .22.46v.09a.38.38 0 0 0 0 .15.33.33 0 0 0 0 .14v.07h.22a.9.9 0 0 0-.05.36v.24a.09.09 0 0 0 0 .07v.22a1 1 0 0 0 0 .24.31.31 0 0 1 0 .19v.09a.29.29 0 0 0 0 .13.23.23 0 0 0 .12.22.16.16 0 0 1 .09.15.89.89 0 0 0 0 .23l.16.15a.22.22 0 0 1 .08.14v.22a.11.11 0 0 0 0 .08v.3a.54.54 0 0 0 0 .18v.2a.54.54 0 0 0 0 .18v.15a1.57 1.57 0 0 1 0 .61 3.33 3.33 0 0 1-.12.65 5.2 5.2 0 0 1-.21.67 4.22 4.22 0 0 1-.32.68 2.75 2.75 0 0 1-.31.52l-.39.47-.21.21h-.1l-.07.08s0 .05-.07.09l-.1.12-.09.15a.2.2 0 0 0-.06.14.49.49 0 0 1-.06.17 2.85 2.85 0 0 0-.33.25l-.35.28v-.07zm-7.45-.1l.13.1.11.09a.52.52 0 0 1 .07.27l-.17-.19-.14-.24zm6.7-1.28l-.38.43-.39.39c.26-.21.43-.35.51-.43a1.66 1.66 0 0 0 .31-.39zm-.55.75l.27-.2.26-.26.26-.26.1-.12.07-.07a.39.39 0 0 0 .1-.08 5 5 0 0 0 .82-1.21h-.1a4.18 4.18 0 0 1-.79 1.16 2.73 2.73 0 0 0-.23.25c-.08.09-.15.18-.23.26l-.24.25-.24.25zM14 11.85v.13a.11.11 0 0 0 0-.08v-.12a.09.09 0 0 1 0 .07zm.27 1.13l.07.72zm0 2.65V15.59zM24.18 1.98l-.08.22a2 2 0 0 0-.26.24l-.42.65c-.14.21-.27.43-.4.65l-.15.2a.2.2 0 0 0 0 .21l-.11.11-.11.11c-.11.18-.22.36-.32.54s-.21.37-.3.55l-.22.43a1.08 1.08 0 0 1-.11.18.3.3 0 0 0-.06.18 1.38 1.38 0 0 1-.08.29.83.83 0 0 1-.16.29.31.31 0 0 0-.1.15.13.13 0 0 0 .08.12c.08 0 .1-.19.16-.28a2 2 0 0 0 .13-.25q.31-.63.6-1.23c.19-.4.39-.81.58-1.23l.72-1.13a7.61 7.61 0 0 0 .51-.87l.33-.29.3-.29.29-.18a.26.26 0 0 1 .29 0 .63.63 0 0 1 .38-.06 2.54 2.54 0 0 0 .39 0h.1c-.05.14 0 .23.19.26a1.14 1.14 0 0 1 .26.09.48.48 0 0 0 .29 0 2.67 2.67 0 0 1 .4 0 .9.9 0 0 0 .4 0 1 1 0 0 1 .34 0l.29.09a.62.62 0 0 0 .26.09.49.49 0 0 1 .31.27l.11.24c0 .08.09.16.14.24a.75.75 0 0 1 .07.39v.09a.31.31 0 0 1 .09.29 2 2 0 0 0-.06.34.31.31 0 0 0 0 .19.44.44 0 0 1 .07.44.42.42 0 0 0-.07.29.15.15 0 0 1 0 .18.19.19 0 0 0-.15.2 1 1 0 0 1 0 .25c0 .09.07.13.23.11a3 3 0 0 0-.08.32 1.28 1.28 0 0 1-.07.28c0 .09.06.14 0 .17a.52.52 0 0 0 0 .63.28.28 0 0 1 0 .18.86.86 0 0 1-.07.21.28.28 0 0 0 .07.26c-.11.08-.13.15-.07.22a.17.17 0 0 0 0 .23.22.22 0 0 1 .08.2 1.19 1.19 0 0 1-.11.26 1.19 1.19 0 0 0-.13.25.41.41 0 0 0 0 .22.8.8 0 0 1 .05.21.4.4 0 0 1-.05.24h-.39v.67a.39.39 0 0 0 .1.08.31.31 0 0 1 .09.07v.08l-.1.11a.49.49 0 0 1 0-.17 1.75 1.75 0 0 0-.12.32.22.22 0 0 0 .07.26v.12a.23.23 0 0 1-.19.07h-.09l-.08.06h.12a.09.09 0 0 1 0 .12.19.19 0 0 1-.13.1.37.37 0 0 0-.29.24.73.73 0 0 0-.15.29l-.58 1.34-.07.22v.14l-.58.94h-.36l-.14.22h-.15c-.09.08-.07.19.08.33l.31-.31c-.07.19-.14.38-.23.58a2.44 2.44 0 0 1-.35.55v-.14c0-.06 0-.1-.07-.1l-.06.07-.06.08.09-.26a2.41 2.41 0 0 1 .08-.32.54.54 0 0 0-.08-.21.22.22 0 0 1 0-.22.61.61 0 0 1 .21-.58.14.14 0 0 1 0 .09.17.17 0 0 0 .05.12l.15-.35a.44.44 0 0 0 0-.32q0-.2.27-.36l.16-.07a2 2 0 0 0 .25-.87.2.2 0 0 1 .12-.26.14.14 0 0 0 .17.03.09.09 0 0 1 0 .07h-.17a.85.85 0 0 0-.17.16.18.18 0 0 0-.17.09.8.8 0 0 0-.08.16.46.46 0 0 1-.07.16.73.73 0 0 0-.14.31.71.71 0 0 0 0 .29l.19-.07-.16.25-.15.25.07-.21a4.32 4.32 0 0 0-.34.53 2 2 0 0 0-.19.53.58.58 0 0 0-.26.06.29.29 0 0 0-.13.16 1.07 1.07 0 0 0-.07.19.27.27 0 0 1-.07.14.38.38 0 0 0-.13.24 1.31 1.31 0 0 1-.06.27l.1-.08s.08-.06.09-.09a1.41 1.41 0 0 1 .26-.42.58.58 0 0 0 .15-.45.22.22 0 0 1 .05.08c-.11.22-.22.45-.34.68l-.36.76c.18-.13.33-.24.46-.35a.9.9 0 0 0 .29-.4c0-.09.1-.12.22-.09l-.15.22a.72.72 0 0 0-.12.21v.07h.13a.86.86 0 0 0-.1.16 1.24 1.24 0 0 0-.1.2l.39-.29-.52.94-.52.94a1.47 1.47 0 0 1-.1.22l-.09.19a2.2 2.2 0 0 1-.32.53l-.4.51-.15.18a.27.27 0 0 0-.05.21.2.2 0 0 1-.11.15.62.62 0 0 1-.18.14.78.78 0 0 0-.43.2 3.88 3.88 0 0 0-.26.31 1.48 1.48 0 0 1-.68.58l-.52.24a1.8 1.8 0 0 1-.51.17l-.26.07-.25.1a1.52 1.52 0 0 1-.36.12 2.16 2.16 0 0 1-.36 0 2.72 2.72 0 0 0-.8.12.66.66 0 0 1-.28.05 1 1 0 0 0-.25 0h-.12a.24.24 0 0 0-.12 0 .89.89 0 0 1-.6.06 3.82 3.82 0 0 1-.46-.21l-.17-.16a.39.39 0 0 1-.15-.28.26.26 0 0 0-.12-.15l-.2-.09a.31.31 0 0 1-.19-.39.73.73 0 0 0 0-.36 1.4 1.4 0 0 0-.08-.34.6.6 0 0 1-.06-.19v-.22a.87.87 0 0 0 .07-.72.87.87 0 0 1 .15-.89.85.85 0 0 0 .19-.75.69.69 0 0 1 .05-.24.92.92 0 0 0 .1-.32.66.66 0 0 1 .12-.33 1.55 1.55 0 0 0 .14-.29 1 1 0 0 1 .1-.29v-.15a.33.33 0 0 1 0-.14.61.61 0 0 0 0-.19.23.23 0 0 1 0-.31 1.87 1.87 0 0 0 .15-.32l.09-.4a1.8 1.8 0 0 1 .1-.4.66.66 0 0 1 .06-.2c0-.06.08-.11.18-.16s.11-.08.14-.19l.16-.64v.21h.08a1.31 1.31 0 0 1 0-.28h-.14l.21-.23a.37.37 0 0 0 .1-.28.9.9 0 0 1-.19.15.77.77 0 0 1 .2-.48l.31-.42a.83.83 0 0 0 .05-.35 1 1 0 0 0-.15.12.72.72 0 0 1 .13-.28 1.09 1.09 0 0 0 .14-.23 1.45 1.45 0 0 1 .26-.43.62.62 0 0 0 .17-.28 1.57 1.57 0 0 1 .12-.3l.29-.73a.78.78 0 0 0 .05-.14.81.81 0 0 1 .13-.55l.37-.57a.94.94 0 0 0 .12-.22 2.13 2.13 0 0 1 .25-.63 5.17 5.17 0 0 0 .28-.64 3.87 3.87 0 0 1 .39-.79 8.31 8.31 0 0 0 .44-.76c.14-.27.3-.55.48-.83a6.06 6.06 0 0 1 .6-.81.39.39 0 0 0 .12-.19 1.35 1.35 0 0 1 .68-.67 1.35 1.35 0 0 1 .26-.15c.18-.11.3-.1.36 0a.29.29 0 0 1 .05.2v.06zm-7.33 14.98a.09.09 0 0 0 0 .07h.07zm.86-3.26a.09.09 0 0 0 0-.07.09.09 0 0 1 0 .07zm.27-.21a.7.7 0 0 1-.1.29H18a2.47 2.47 0 0 0 .1-.29zm1.02-.26h.05a1.18 1.18 0 0 1 .11-.19q.06-.08-.06-.15a.15.15 0 0 1-.05.19.1.1 0 0 0 0 .14zm.26-.61h.07a.33.33 0 0 1 0-.14h-.07a.33.33 0 0 0 0 .14zm.15.56a.18.18 0 0 1-.05.07h.05a.09.09 0 0 0 0-.07zm7.28-7c-.05 0-.07-.08-.07-.1a1.13 1.13 0 0 1 0-.26c0-.1-.07-.13-.25-.1s-.05 0-.05-.12a.43.43 0 0 1 0-.16v-.15a.21.21 0 0 1 0-.11.21.21 0 0 0 0-.11.38.38 0 0 1-.09-.32.6.6 0 0 1 .09-.38 1 1 0 0 1 .06-.25.16.16 0 0 0-.11-.21v-.14a1 1 0 0 0 0-.35c0-.11-.07-.19-.2-.25s0 0 0-.12c.07-.13.05-.21 0-.22a.32.32 0 0 1-.22-.12l-.21.17a.43.43 0 0 0-.13.17.88.88 0 0 0-.1.22.5.5 0 0 1-.09.23 1.45 1.45 0 0 1-.22.21.6.6 0 0 0-.19.23c-.11.22-.23.45-.34.68a7.49 7.49 0 0 1-.36.69l-.21.34c-.05.12-.11.24-.18.37a3.41 3.41 0 0 0-.33.73 2.14 2.14 0 0 1-.39.71.57.57 0 0 1-.12.18l-.15.18v.16a.13.13 0 0 0 0 .12.3.3 0 0 1 0 .36.56.56 0 0 0-.17.36 1.34 1.34 0 0 1-.32.68.64.64 0 0 0-.14.35.74.74 0 0 1-.1.35l-.12.14v.09a.22.22 0 0 1-.05.08 1.18 1.18 0 0 0-.24.72.41.41 0 0 1 .12-.14.6.6 0 0 1-.22.41.63.63 0 0 0-.22.44.89.89 0 0 1-.12.45c.08.07.1.14 0 .22a.92.92 0 0 0-.13.24.54.54 0 0 0-.12.13 1.21 1.21 0 0 0-.05.18v.17a.19.19 0 0 1-.11.14 1 1 0 0 0-.36.66 2.44 2.44 0 0 1-.48 1.12v.06l.24-.24a2 2 0 0 1-.07.26 1 1 0 0 1-.13.3.39.39 0 0 0-.04.35.91.91 0 0 1-.31.72.11.11 0 0 1 0 .08.11.11 0 0 0 0-.08c.22.15.16.36-.17.63a.25.25 0 0 1 .14.29.93.93 0 0 0-.05.29 1.41 1.41 0 0 1 0 .29l-.07.36v.65a3.5 3.5 0 0 0 .12.63.36.36 0 0 0 .13.23.54.54 0 0 0 .35-.09 1 1 0 0 0 .27-.19 1.07 1.07 0 0 0 .14-.16.93.93 0 0 1 .15-.13 1.8 1.8 0 0 0 .44-.43 2.34 2.34 0 0 1 .45-.44.06.06 0 0 0 0-.06.11.11 0 0 1 0-.08l.25-.49a3.52 3.52 0 0 1 .3-.45l.43-.62c.13-.2.26-.41.39-.64a1.14 1.14 0 0 0 .09-.26c0-.1.1-.17.23-.22s.13-.29.19-.44a1.46 1.46 0 0 1 .29-.41l.08-.14a1.45 1.45 0 0 0 .22-.49.83.83 0 0 1 .33-.47.1.1 0 0 0 .05-.08l.18-.39.16-.4c0-.13.14-.35.2-.52a3.43 3.43 0 0 1 .23-.52 2.09 2.09 0 0 0 .19-.4 2.64 2.64 0 0 0 .12-.4l.12-.5a2.91 2.91 0 0 1 .22-.51.37.37 0 0 0 .14-.29.86.86 0 0 1 0-.39 2.4 2.4 0 0 0 .12-.38 2.57 2.57 0 0 0 .08-.4 2.79 2.79 0 0 1 .07-.4.56.56 0 0 0 0-.36.38.38 0 0 1 .15-.36c0-.07-.05-.11 0-.13a.42.42 0 0 1 .14-.09s.05 0 .05-.07h-.24v-.36a1.41 1.41 0 0 1 0 .29.35.35 0 0 0 .1-.2.61.61 0 0 0 0-.19.06.06 0 0 0 0-.06.14.14 0 0 1-.09 0l-.05-.06v-.11l.22-.07c.06 0 .08-.1.07-.2l.07-.07s0 .06-.05.07l-.05.08zm-7.14 5.64h.07a.34.34 0 0 1 .05-.14.34.34 0 0 0-.05.14zm.36-.89a.8.8 0 0 1 .08-.16.11.11 0 0 0 0-.15c-.1.08-.13.14-.11.18a.37.37 0 0 1 .05.11zm.12 2.6a.11.11 0 0 0 0 .08.11.11 0 0 1-.03-.08zm.75-5.08l-.28.53a2.35 2.35 0 0 0-.23.57 2.29 2.29 0 0 0-.12.37 1.4 1.4 0 0 1-.1.36 7 7 0 0 0 .46-1 2.23 2.23 0 0 0 .16-.43 1.47 1.47 0 0 1 .13-.44zm.07.86a.11.11 0 0 0 0 .08.09.09 0 0 0 0-.07zm.46-1.77a.87.87 0 0 0-.17.21 1 1 0 0 0 0 .25 1.42 1.42 0 0 0 .07-.22 2 2 0 0 1 .08-.22zm.31-1.56a.66.66 0 0 0-.22.32 2.4 2.4 0 0 1-.12.38.65.65 0 0 0 .3-.37c0-.11.05-.22.07-.33a.09.09 0 0 1 0-.07.09.09 0 0 0 0 .07zM23 18.46h.07a.09.09 0 0 0 0-.07.23.23 0 0 1-.1.07zm1.33-1.83a.56.56 0 0 1-.1-.15.7.7 0 0 0 .23-.28 3.55 3.55 0 0 0 .06-.47.31.31 0 0 1-.09.11l-.06.09c-.13.24-.27.47-.42.71a7.14 7.14 0 0 0-.4.71 1.35 1.35 0 0 1-.15.26c0 .08-.1.16-.14.24a.11.11 0 0 0 0 .08v.05q.12-.12.12-.15a2 2 0 0 1 .1-.21c0-.07.1-.11.21-.15.12.13.19.19.23.18a.71.71 0 0 0 .25-.2c.12-.13.24 0 .17.12l-.07.14a2.21 2.21 0 0 1-.18.34 1.59 1.59 0 0 0-.16.41l.12-.13a.28.28 0 0 0 .1-.09l.1-.19a.46.46 0 0 1 .14-.17 1.72 1.72 0 0 0 .4-.49c.09-.17.19-.34.3-.52a2.5 2.5 0 0 0 .21-.35 1.1 1.1 0 0 0 .08-.4l-.08.11a.15.15 0 0 0-.06.09.89.89 0 0 1-.23 0h-.18a1 1 0 0 0-.28.14l-.28.19zm-.92-13.8l.12-.14h-.07a.41.41 0 0 0-.12.14zm.26 15a.11.11 0 0 1 0 .08v.07a.07.07 0 0 0 .07-.07zm.2.2l.13-.15v-.19a.61.61 0 0 0 0 .19v.15zm.47-.44a2.93 2.93 0 0 1 .05-.29 1.37 1.37 0 0 1 .07-.29h-.15c-.21.06-.27.15-.19.26a.76.76 0 0 0 .11.14zm.05-.79a.09.09 0 0 1 0 .07l-.05.07a.12.12 0 0 0-.05-.07l.17-.07zm.44.31a.88.88 0 0 0 0 .15.58.58 0 0 0-.05.14.24.24 0 0 1 0-.12s0-.06.11-.12zm.12.05a.44.44 0 0 0 .05-.18.11.11 0 0 1 0 .08zm0-2.36l.11-.08h.06l.07-.15-.05-.07a1.7 1.7 0 0 0-.1.32zm.63-.82v-.08a.39.39 0 0 1-.1.08zm.19.62a.11.11 0 0 0 0 .08zm.17-1.54a.44.44 0 0 0-.05.15h.07a.44.44 0 0 1 .05-.15zm0 1.25a.09.09 0 0 1 0-.07.11.11 0 0 0-.05.09zm.1 1v-.1l-.08.07h.05zm.6-12a.44.44 0 0 1-.05.15.44.44 0 0 0 .05-.15zm0 8.73c.12-.06.19-.11.19-.15a.27.27 0 0 0-.07-.14l-.12.32zm.19 2c.11.08.09.17-.07.26v-.13a.61.61 0 0 1 0-.19zm0-3.26l.1-.08zm0 3.18l.15-.36a1.33 1.33 0 0 0 .05-.19.22.22 0 0 1-.09-.21.81.81 0 0 1 0-.22 2.12 2.12 0 0 1 .11-.21 2.12 2.12 0 0 0 .11-.21.29.29 0 0 1 .13.39l-.23.49-.23.47h-.07zm.41-2.53a.68.68 0 0 0-.18.26 1.22 1.22 0 0 0-.06.29.6.6 0 0 0 .2-.27l.06-.28zm-.05-.77H27a.07.07 0 0 0 .07-.08v-.07zm.22-.59v-.21h-.08v.21zm.07 1.55v-.11a.08.08 0 0 0-.09 0s-.07 0-.08.06 0 .06.08 0a.31.31 0 0 0 .09-.07zm0 .41l.13-.2a1 1 0 0 1 .19-.21c-.1.27-.18.52-.25.74-.12-.11-.18-.21-.16-.31s.08-.12.14 0zm-.05-5.7a.38.38 0 0 1 0 .15.38.38 0 0 0-.05-.15zm-.05 4.3a.09.09 0 0 1 0-.07.09.09 0 0 0-.05.07zm.12-1.18h-.1zm.34 2.14a.36.36 0 0 1 0-.32 1.42 1.42 0 0 1 .06-.29h.1a.72.72 0 0 1-.24.63zm.29-1.17a3 3 0 0 0 .26-.5.62.62 0 0 0 0-.27 1.21 1.21 0 0 1-.11.37c0 .12-.08.25-.13.38zm.41-4.77a.12.12 0 0 0 0 .07l.05-.07zm.19 2.77a.24.24 0 0 0-.05.34.54.54 0 0 0 .05-.21zm.51-4a.33.33 0 0 0 0-.14h.08a.33.33 0 0 1 0 .14zM31.39 8.38a.42.42 0 0 0 .17-.34l.24-.32.26-.35v.21l.1-.07.23-.37.23-.4h-.37a1.47 1.47 0 0 0 .15-.34.72.72 0 0 1 .24-.42l.12.15a.8.8 0 0 0 .17-.15.81.81 0 0 0 0-.22l-.17.07a2.44 2.44 0 0 0 .1-.24.81.81 0 0 1 .14-.24l.08-.09a.14.14 0 0 1 .09 0c.18 0 .29 0 .35-.15a1 1 0 0 1 .2-.29v-.18a.76.76 0 0 0-.06-.2 2.73 2.73 0 0 1 .25-.23 2.73 2.73 0 0 0 .28-.23s.08-.06.1 0v.09l.51-.36a5.5 5.5 0 0 1 .64-.43l.66-.37.34-.16a1.13 1.13 0 0 1 .36-.06.31.31 0 0 1-.11.09l-.15.11c.25-.07.5-.12.74-.17a.16.16 0 0 0-.22-.09.3.3 0 0 1-.26 0 .66.66 0 0 1 .4-.17h.65a1.71 1.71 0 0 0 .3-.09 2.25 2.25 0 0 1 .44-.14 2.73 2.73 0 0 0 .41-.25h.07a4.78 4.78 0 0 0 .75.08.88.88 0 0 1 .65.28l.16.13.2.14a1 1 0 0 1 0-.25 1.35 1.35 0 0 1 .71.43 2.87 2.87 0 0 1 .46.69 1 1 0 0 1 .08.38 2.54 2.54 0 0 0 0 .39v1.89a.42.42 0 0 1-.21.33.54.54 0 0 0-.29.32 7.47 7.47 0 0 1-.29.79l-.36.8a1.62 1.62 0 0 0-.1.18c0 .06-.1.08-.19.08s0 0 0 .05v.1l-.18.19a.8.8 0 0 1-.08.16 1.37 1.37 0 0 1-.57.06.7.7 0 0 0-.56.23.14.14 0 0 1-.06-.11.35.35 0 0 0-.06-.14l-.58.44a1 1 0 0 1-.39.22.59.59 0 0 1-.34-.1.68.68 0 0 0-.2-.07.9.9 0 0 1-.21-.08c-.25-.06-.32-.25-.21-.55a2.23 2.23 0 0 1 .26-.48 2.22 2.22 0 0 0 .2-.41 1.53 1.53 0 0 1 .19-.41 3 3 0 0 0 .26-.76 3.13 3.13 0 0 1 .17-.72v-.18a.61.61 0 0 0 0-.19 1 1 0 0 0 0-.24.25.25 0 0 1 .09-.24v-.89a.67.67 0 0 0 0-.2.23.23 0 0 0-.15-.14.26.26 0 0 0-.06-.3.63.63 0 0 1-.16-.23c-.07-.09-.12-.14-.15-.14a.9.9 0 0 0-.24.12 2.42 2.42 0 0 0-.77.69 4.43 4.43 0 0 0-.48.85 1.15 1.15 0 0 1-.12.25l-.15.26a1.71 1.71 0 0 1-.09.3 1.48 1.48 0 0 0-.12.29v.07a.11.11 0 0 1 0 .08 2.7 2.7 0 0 0-.29.62c-.07.21-.13.43-.19.65l-.1.19a1.62 1.62 0 0 0-.1.18 1.41 1.41 0 0 0-.14.44.44.44 0 0 0 .12.38l.09.07a.38.38 0 0 1 .08.12H35v.06l-.72 2.38a15.8 15.8 0 0 0-.65 2.8c-.07.4-.12.8-.16 1.19s-.08.8-.13 1.2a5.12 5.12 0 0 0-.06.78v.76a.45.45 0 0 0 0 .23l.06.23a2.73 2.73 0 0 1 0 .7 1.31 1.31 0 0 0 .21.6c.25-.26.47-.51.69-.75a3.26 3.26 0 0 0 .54-.79 7 7 0 0 0 .5-1.16c.12-.39.24-.77.35-1.16s.18-.55.25-.83a3.13 3.13 0 0 1 .33-.83.28.28 0 0 0 .08-.15c0-.06 0-.11-.08-.14.18-.1.25-.2.22-.3a.66.66 0 0 1 0-.28 1.27 1.27 0 0 1 .36-.65.54.54 0 0 1 .44-.22h.21a.79.79 0 0 1 .58-.12.63.63 0 0 0 .56-.22.24.24 0 0 0 .12.07.47.47 0 0 1 .12.07l.17-.07.19-.05c.29-.06.39 0 .29.27s-.08.27-.13.4-.11.27-.16.39l-.24.76a5 5 0 0 0-.19.76 11.74 11.74 0 0 1-.32 1.3c-.13.44-.27.87-.43 1.31a1.25 1.25 0 0 1-.1.29l-.09.29a.69.69 0 0 1-.1.19c-.26.42-.49.84-.7 1.26a5.42 5.42 0 0 1-1 1.13.65.65 0 0 1-.17.2q-.45.33-.93.63a2 2 0 0 1-1 .33 1.52 1.52 0 0 0-.75.22 1.38 1.38 0 0 1-.59.2 3.18 3.18 0 0 0-.64.11l-.12-.05-.72-.21H31a.89.89 0 0 1-.52-.14l-.4-.29a1.63 1.63 0 0 1-.7-1.13c0-.23-.06-.46-.08-.7s-.06-.48-.09-.7l-.09-.4a1.48 1.48 0 0 1 0-.42v-.71a3.51 3.51 0 0 1 .07-.72v-.09a.8.8 0 0 1 0-.57 1.48 1.48 0 0 0 .08-.59 1.9 1.9 0 0 1 .09-.58q.09-.31.15-.63v-.55a1.93 1.93 0 0 1 0-.34l.06-.33a1.32 1.32 0 0 1 .13-.47 2.6 2.6 0 0 0 .16-.47 3.39 3.39 0 0 1 .14-.39c.05-.15.1-.31.17-.47a.33.33 0 0 1 .11-.15.86.86 0 0 0 .13-.14l.09-.24a.81.81 0 0 1 .17-.24.43.43 0 0 0 .14-.23.28.28 0 0 0-.09-.23.21.21 0 0 1-.06-.1.24.24 0 0 0-.06-.09.9.9 0 0 1-.28.08c-.09 0-.15 0-.2-.16h.5a.55.55 0 0 0 .15-.24 3 3 0 0 1 .11-.32.91.91 0 0 1 .12-.33l.24-.14a.84.84 0 0 0 .05-.17 2.17 2.17 0 0 1 .07-.24.53.53 0 0 1 .24-.31zm-1.09 3.3a.79.79 0 0 0-.05.22h.08a.81.81 0 0 1 0-.22zm.89-1.25a.09.09 0 0 0 0-.07.09.09 0 0 1 0 .07zm2.2-3.02a4.68 4.68 0 0 0 .3-.54 1.9 1.9 0 0 0 .18-.57 2.94 2.94 0 0 0-.3.55c-.07.18-.14.37-.2.56zm1.4-2.67A2.76 2.76 0 0 0 34 6.11c.15-.22.29-.45.43-.69s.27-.46.39-.68zM40.69 15.42l.22-.87v-.22s0-.06.15-.09a.18.18 0 0 1 .07-.23.2.2 0 0 0 .07-.23.15.15 0 0 1 0-.13 1.34 1.34 0 0 0 .07-.18l.17.07.14-.29.12-.27a.09.09 0 0 0 0-.07.09.09 0 0 1 0-.07c0-.11 0-.17-.22-.17l.2-.14a.08.08 0 0 0 0-.09l-.06-.08.38-.3.37-.33a.17.17 0 0 1 0-.17.12.12 0 0 0-.1-.14v-.06a.65.65 0 0 0 .14-.43.34.34 0 0 1 .17-.29.17.17 0 0 0 0-.1 1.18 1.18 0 0 0 .12-.36 1.29 1.29 0 0 0 .36-.53.18.18 0 0 1 .09-.08.41.41 0 0 0 .11-.07l.12.07a.06.06 0 0 0 0-.07c.08-.13.16-.2.22-.2a.81.81 0 0 1 .31 0c.28.07.35.24.22.51a.34.34 0 0 0 0 .14h.07l.44-.65v-.15c.06-.1.16-.11.29-.05a.52.52 0 0 1 .24-.2l.31-.11a2.31 2.31 0 0 1 .52-.06 1.09 1.09 0 0 1 .36 0h.22v.15c-.08.22-.17.44-.25.65s-.18.42-.26.65a.17.17 0 0 0 0 .14.38.38 0 0 1 0 .15l-.24.72-.24.73c-.11.35-.22.7-.34 1l-.33 1c-.12.32-.22.64-.32.94s-.19.62-.29.94-.14.44-.19.66-.11.42-.19.65c-.13.46-.27.92-.42 1.37s-.41 1.08-.51 1.5a4.48 4.48 0 0 0-.2.62c-.06.2-.12.41-.19.61a.57.57 0 0 0 0 .26v.25a.43.43 0 0 1-.16 0h-.13a1.27 1.27 0 0 1-.92.39H41a1.15 1.15 0 0 0-.37 0 2.26 2.26 0 0 0-.37.11l-.34.08a.55.55 0 0 1-.36 0 .17.17 0 0 0-.14 0 .29.29 0 0 0-.13 0q-.36.15-.51-.09a.65.65 0 0 1 0-.34 2.53 2.53 0 0 1 .12-.36 1.41 1.41 0 0 0 0-.29 2.16 2.16 0 0 1 .19-.87 2.38 2.38 0 0 0 .15-.45 3.17 3.17 0 0 1 .12-.44l.21-.58a.61.61 0 0 0 0-.12.24.24 0 0 0 0-.12 1.77 1.77 0 0 1 .11-.44 1.54 1.54 0 0 0 .06-.43.69.69 0 0 0 .18-.36 2.25 2.25 0 0 1 .06-.36 1.91 1.91 0 0 0 .12-.47 1.1 1.1 0 0 1 .07-.47 1.47 1.47 0 0 1 .1-.22c.06-.1.11-.2.16-.3a.92.92 0 0 1 .18-.3zm1.14-2.89a.18.18 0 0 0 0-.07zm2.26-2.34H44a1.65 1.65 0 0 0-.22.53 2.49 2.49 0 0 1-.16.53c.08-.18.14-.35.2-.51a4.4 4.4 0 0 1 .21-.5zm.61-7.5a.76.76 0 0 0 .12-.42 2 2 0 0 0-.08-.35.34.34 0 0 1 0-.2.41.41 0 0 1 .15-.17l.11-.07a.85.85 0 0 1 .32-.38l.43-.24h3l.15.22c0 .08.09.15.14.23a.08.08 0 0 1 0 .11v.33l-.06.47a1.23 1.23 0 0 1-.23.49.77.77 0 0 0-.1.25 2 2 0 0 1-.07.26c-.07.18-.13.36-.21.54l-.2.54a17.74 17.74 0 0 0-.58 1.74 1.16 1.16 0 0 1-.93.87l-.66.07a1.34 1.34 0 0 1-.4 0l-.18-.16a.8.8 0 0 1-.16.08l-.15.08h-.22a.22.22 0 0 1-.22 0h-.15l-.19.08a2.31 2.31 0 0 1-.2-.24 1.37 1.37 0 0 0-.13-.2.45.45 0 0 1-.12-.48 6.67 6.67 0 0 1 .25-1.16c.14-.37.29-.75.45-1.12a5.71 5.71 0 0 0 .21-.58 1.87 1.87 0 0 0 .12-.57v-.08a.09.09 0 0 1 0-.07zM55.19 20.22a2.67 2.67 0 0 0 0 .4v.42l-.2.17a3.07 3.07 0 0 0-.31.17l-.08.08h-.09a3.69 3.69 0 0 0-.64.21 1.09 1.09 0 0 1-.64.1.49.49 0 0 0-.38.14 1.05 1.05 0 0 1-.27.2l-.29.17h-.85s-.07-.16-.1-.25a.39.39 0 0 1 .07-.33.59.59 0 0 0 .08-.43 2.35 2.35 0 0 1 0-.53 4.54 4.54 0 0 1 .12-.53.66.66 0 0 0 0-.28.66.66 0 0 1 0-.28 2.22 2.22 0 0 0 0-.63 1.21 1.21 0 0 1 .15-.64.33.33 0 0 0 0-.24 1 1 0 0 1-.06-.25 3.69 3.69 0 0 1 0-.47v-.44a.24.24 0 0 1 .09-.15.15.15 0 0 0 0-.18.11.11 0 0 0 0-.08v.08l-.08-.22a.44.44 0 0 1 .08-.27.138.138 0 0 0 .21-.18.24.24 0 0 1 0-.12h-.13a.21.21 0 0 0-.11 0 2.9 2.9 0 0 1-1 .3l-.93.11a.64.64 0 0 0-.27.07.75.75 0 0 0-.21.26.34.34 0 0 0 .19-.09.36.36 0 0 1-.07.26.72.72 0 0 1-.1.24.49.49 0 0 1-.18.17l-.23.17h-.06v.06a3.38 3.38 0 0 0-.18.44c-.06.16-.13.33-.21.52l.16-.14.13-.12v.15a.11.11 0 0 1 0 .11 1.11 1.11 0 0 0-.18.34.61.61 0 0 1-.26.31c-.11.12-.14.22-.09.32a.2.2 0 0 1 0 .21c-.09.17-.16.34-.23.51s-.1.33-.15.51-.13.21-.34.16a.43.43 0 0 1-.39.29 2.88 2.88 0 0 1-.59.06 2 2 0 0 1-.64-.1.17.17 0 0 0-.14 0 .39.39 0 0 1-.1.08.31.31 0 0 0-.09.07.91.91 0 0 1-.62.26.51.51 0 0 1-.47-.26 1.26 1.26 0 0 1 .19-1.3 2.14 2.14 0 0 0 .2-.4 2.83 2.83 0 0 1 .17-.4.21.21 0 0 0 0-.11l-.07.06a1.43 1.43 0 0 0 .2-.23.62.62 0 0 0 .09-.27.65.65 0 0 1 .08-.27l.14-.29a3.2 3.2 0 0 0 .16-.39.94.94 0 0 1 .25-.4l.14.07c.15-.15.16-.23 0-.27s-.11-.07-.07-.16l.15-.37c.06-.12.11-.24.16-.36l.07-.07a1.68 1.68 0 0 0 .24-.29 1 1 0 0 0 .1-.29.33.33 0 0 1 0-.14c.13-.25.25-.49.36-.73a3.87 3.87 0 0 1 .43-.7 1.08 1.08 0 0 0 .08-.19 2.53 2.53 0 0 0 .12-.36.59.59 0 0 1 .45-.41 2.81 2.81 0 0 1 0-.41.76.76 0 0 1 .29-.41.42.42 0 0 0 .16-.25 1.31 1.31 0 0 1 .09-.28.94.94 0 0 1 .14-.33 3.24 3.24 0 0 1 .17-.32.26.26 0 0 0 .07-.15c0-.06.07-.09.17-.07v-.12a.13.13 0 0 1 0-.12 2.21 2.21 0 0 1 .16-.35l.18-.33a.26.26 0 0 0 .37 0 .41.41 0 0 0 0-.09.48.48 0 0 1 .29-.19.4.4 0 0 0-.15-.14 1 1 0 0 0-.24 0l.16-.3a1.51 1.51 0 0 0 .13-.29.34.34 0 0 1 .21-.16.24.24 0 0 0 .18-.13.74.74 0 0 0 0-.21.22.22 0 0 1 0-.16.67.67 0 0 0 .22-.41 1.07 1.07 0 0 1 .2-.38 1 1 0 0 0 .17-.33 1.49 1.49 0 0 1 .17-.36c.07-.13.13-.25.21-.37l.23-.33a.29.29 0 0 1 .27-.08.23.23 0 0 0 .12-.06 1.62 1.62 0 0 0 .27-.41 1.42 1.42 0 0 0 .07-.22.37.37 0 0 1 0-.22.69.69 0 0 1 .39-.53v-.14a1.36 1.36 0 0 0 .41-.64l.12-.67a1.16 1.16 0 0 1 .14-.48c.08-.14.16-.29.24-.46a.25.25 0 0 1 .24-.12.28.28 0 0 1 .18 0 .34.34 0 0 1 .12.12.5.5 0 0 0 .15.14 2.24 2.24 0 0 0 .41-.72 1.18 1.18 0 0 1 .14-.4.62.62 0 0 1 .27-.4l.4-.23c.15-.06.22 0 .22.15l.07.43h.36a2.79 2.79 0 0 0 .39-.1H57s.06.16 0 .32 0 .19-.05.29 0 .19 0 .29a2.25 2.25 0 0 0-.06.36v.36a8.58 8.58 0 0 1-.1.87c0 .29-.07.58-.1.86a1 1 0 0 0 0 .42 2.62 2.62 0 0 1 0 .79 7.51 7.51 0 0 1-.19.82 1.35 1.35 0 0 0-.05.53 2.66 2.66 0 0 1 0 .69 5.46 5.46 0 0 1-.1.69c0 .23-.06.35-.08.54l-.09.54c0 .27-.06.54-.08.8s-.05.52-.09.79a6.62 6.62 0 0 1-.06.68c-.06.23 0 .45-.06.67s0 .23-.05.34 0 .23 0 .34a.74.74 0 0 0 0 .21v.95a.13.13 0 0 0 0 .12 1 1 0 0 1 .07.58c0 .21-.06.41-.07.6a3.84 3.84 0 0 1 0 .48 1.93 1.93 0 0 0 0 .48v.1c-.07.42-.13.84-.2 1.27s-.12.85-.19 1.26l-.22 1.45zm-7.09-7a.09.09 0 0 0 0-.07.17.17 0 0 1 0 .1zm4.43-5.5c0-.1.1-.2.16-.3a1.94 1.94 0 0 0 .13-.3 5 5 0 0 0 .06-.54 2.32 2.32 0 0 1 .06-.6l-.09.13a.41.41 0 0 0-.05.09c-.15.32-.3.63-.46.94s-.31.62-.46.94c-.08.16-.15.32-.22.48l-.19.51a1.57 1.57 0 0 0-.12.3 1.88 1.88 0 0 1-.12.3c-.08.19-.17.39-.26.58s-.2.38-.29.58l-.12.23a.67.67 0 0 0-.1.23 4.26 4.26 0 0 1-.35.92c-.15.3-.29.6-.42.91a.29.29 0 0 0 .16-.13.8.8 0 0 1 .08-.16c.23-.45.44-.9.65-1.35s.43-.9.66-1.35q.16-.32.3-.63a2 2 0 0 1 .39-.6l.12-.18.13-.18.19-.4c.06-.14.13-.27.19-.4zm-1.59 6.9a2.12 2.12 0 0 0 1.06-.09.66.66 0 0 0 0-.28v-.27a1.22 1.22 0 0 1 0-.27.75.75 0 0 1 .18-.28v-.1a.14.14 0 0 1 0-.09v-.44a3.09 3.09 0 0 1 0-.43.24.24 0 0 1 0-.12h.16v-.15c-.12 0-.19 0-.22-.08l-.1-.26a1.83 1.83 0 0 0-.14.32.47.47 0 0 1-.24.24.26.26 0 0 0-.15.12v.29a.13.13 0 0 1-.1.12l-.23.43a1.9 1.9 0 0 0-.15.46 1.57 1.57 0 0 1-.2.46c-.17.24-.15.39.08.43zm1.42-4.02h.21a1 1 0 0 0 .11-.17.32.32 0 0 0-.32.2zm0 1.83a.09.09 0 0 1 0 .07h.08zm.14-4a1.62 1.62 0 0 0 .1-.18 1.62 1.62 0 0 1 .1-.18h-.08a.47.47 0 0 0-.07.36zm.57-1.63l.1-.1-.07.07a.09.09 0 0 0 0 .07zM55 2.59c-.13.18-.25.34-.38.5a.41.41 0 0 0 0 .49.11.11 0 0 1 0 .08v.67a2.12 2.12 0 0 0 0 .71 1.7 1.7 0 0 1 0 .71c0 .13 0 .19.12.19a.11.11 0 0 0 0 .08.11.11 0 0 1 0-.08l.14-1.37a2.46 2.46 0 0 1 .1-.47 2.3 2.3 0 0 0 .02-.45v-.21a.41.41 0 0 1 0-.22c0-.1.09-.2.13-.32a.3.3 0 0 0-.13-.31zM64.34 21.54c0 .13-.09.23-.26.3l-.22.1-.22.05-1 .1a8.34 8.34 0 0 1-1 0 .76.76 0 0 0-.3 0h-1.05l-1.76.16-1.72.16c.09-.46.19-.92.29-1.38s.19-.91.27-1.35a2.34 2.34 0 0 0 .09-.38c0-.12 0-.25.07-.37a.61.61 0 0 0 0-.19.54.54 0 0 1 0-.18v-.2a.76.76 0 0 1 .06-.37 1.09 1.09 0 0 0 0-.36.86.86 0 0 1 .1-.16.91.91 0 0 0 .11-.16c.09-.48.18-1 .28-1.45s.2-1 .31-1.45a.2.2 0 0 0 0-.15.11.11 0 0 1 0-.11 2.62 2.62 0 0 0 .12-.68 1.16 1.16 0 0 1 .24-.67 1.14 1.14 0 0 0 .09-.26c.06-.28.13-.55.2-.82s.14-.54.22-.83.09-.35.13-.52.09-.34.14-.53l.06-.25a.17.17 0 0 0 0-.17.33.33 0 0 1 0-.24l.07-.2a1.58 1.58 0 0 0 .09-.42 1.11 1.11 0 0 1 .15-.43v-.24a1.05 1.05 0 0 1 .1-.78 5.66 5.66 0 0 0 .27-.79c.07-.28.13-.55.2-.81a5.76 5.76 0 0 0 .15-.81v-.62a1.79 1.79 0 0 1 .17-.64 1.72 1.72 0 0 1 .13-.71 2.2 2.2 0 0 0 .08-.75.8.8 0 0 1 .06-.36.41.41 0 0 1 .23-.28q.07-.34.24-.42h.44l.13-.07.12-.06.16-.11a.12.12 0 0 1 .14 0 .32.32 0 0 0 .48.1c.17-.1.33-.21.49-.32l.23-.19c.08-.08.16-.14.23-.2a.58.58 0 0 1 .41 0c.2 0 .29.08.29.16a.73.73 0 0 0 0 .36 2.33 2.33 0 0 0 .11.28V.98a.36.36 0 0 0-.16.31.62.62 0 0 1-.08.35.42.42 0 0 0-.06.31.63.63 0 0 1-.06.33 2.81 2.81 0 0 0-.2.7 4.15 4.15 0 0 1-.15.7v.16a.15.15 0 0 0 0 .13.23.23 0 0 1 .06.26 1.15 1.15 0 0 1-.11.31c0 .1-.14.17 0 .22a1.74 1.74 0 0 0-.14.38 1.15 1.15 0 0 0 0 .37 1.34 1.34 0 0 1 0 .4.83.83 0 0 1-.07.41.81.81 0 0 1 0 .22.8.8 0 0 1-.15.21.44.44 0 0 0-.11.55v-.32h.05l-.24.86-.24.87a.33.33 0 0 0-.31.29 1.49 1.49 0 0 1-.17.44.38.38 0 0 1 .15 0h.13a.63.63 0 0 1-.05.3v.29a.3.3 0 0 1-.12.21.56.56 0 0 0-.26.47 1.89 1.89 0 0 1-.09.34 2 2 0 0 1-.08.33v.34a.36.36 0 0 1 .06.25.58.58 0 0 1-.05.28 5.22 5.22 0 0 0-.12.67c0 .21-.09.44-.14.67a1.31 1.31 0 0 1-.09.28.58.58 0 0 1-.17.21.31.31 0 0 0-.09.11.57.57 0 0 1-.08.13h.2a.44.44 0 0 0-.23.33.56.56 0 0 1-.23.35.27.27 0 0 0-.07.14q0 .12.06.15c.06 0 .07.06 0 .11a.33.33 0 0 0 0 .14c.09.08.14.15.14.19a.94.94 0 0 1-.08.33l-.06.19a.43.43 0 0 0 0 .16 2.27 2.27 0 0 1-.12.63c-.08.22-.14.43-.2.65a1.77 1.77 0 0 1-.23.48h.2l-.18.19c-.07.06-.09.1 0 .13h.19a.17.17 0 0 1 .1 0 .24.24 0 0 1 0 .12q0 .11.06.09a.31.31 0 0 0 .13-.06h.46a.67.67 0 0 1 .2 0 3.42 3.42 0 0 0 1.35-.09 2.56 2.56 0 0 1 .73-.08 5.08 5.08 0 0 1 .67.07 1.71 1.71 0 0 1 0 .32c0 .11-.11.21-.33.32a.14.14 0 0 0 0 .09.17.17 0 0 1 0 .1 3.11 3.11 0 0 1-.68.11h-1.52l-.81.1H61a.5.5 0 0 1-.23-.09l-.1-.07H60.38l-.28.13a.58.58 0 0 1-.22.08h-.37a.73.73 0 0 0-.07-.48 1.3 1.3 0 0 0-.14.39 2.91 2.91 0 0 1-.12.39l.16.06a.67.67 0 0 0 .24.07h.9a.29.29 0 0 1 0 .13.12.12 0 0 0 .11.09H61l.51-.06-.19-.05-.14-.06a1.71 1.71 0 0 1 .38-.13l.37-.05a5.74 5.74 0 0 0 1-.21 1.45 1.45 0 0 1 .68-.13 2.72 2.72 0 0 1 .64.05.22.22 0 0 1 .22.22 1.62 1.62 0 0 1 .06.62v.63zm-5.06-2.24c.06-.18.1-.29.11-.33a.89.89 0 0 0 0-.23l-.06.29-.06.3zm.45-1.6l-.35 1.4h.07l.19-.68V18.09l.11-.37h-.12zm.24-.83zm.25-1.22l.1-.44-.09.47zm.27-1.29v.07zm1.31 5.97c.06.07.12.1.19.07a1.23 1.23 0 0 0 .26-.12l-.43.05z" /><path d="M4.86 27.47a1.2 1.2 0 0 1 .21-.17.4.4 0 0 0-.15.19s0-.08-.06-.02zM4.21 28.33l.12-.1-.04.13zM6.12 26.54c-.13 0 .58-.14.13 0-.07.08-.1-.05-.13 0zM5.87 26.7l.13-.08-.17.11zM3.9 28.87l.23-.17-.12.16zM3 33.73l.1-.1c0 .07.15-.07-.12.13zM3.8 32.05a.74.74 0 0 1 .2.23.28.28 0 0 0 0 .18c0 .1 0 0 .07 0s-.07.24-.11 0H4a.86.86 0 0 0-.2-.41zM3.7 32.88c0-.14.1-.42.17-.15-.05.1-.1-.06-.17.15zM3.65 32.27l.06-.29v.25s-.04-.02-.06.04zM3.84 31.17v-.4a.74.74 0 0 0 .07.21c.01.21-.04.17-.07.19zM2.08 34.79h-.16a2.63 2.63 0 0 0 .82-.45c-.05.2-.46.29-.66.45zM1.43 35.04l.24-.02-.2.04zM3 33.73c-.12.09 0-.1 0 0zM2.63 34.58c.07 0 .22-.2.24-.16l-.1.12zM3.41 33.6c-.29.25-.31.14 0-.1-.09.09-.18.21 0 .1zM3.6 31.87a.3.3 0 0 1-.08-.18l.08.09zM3.39 33.23a.08.08 0 0 1 .1.06.6.6 0 0 0-.15.09s.11-.17.05-.15z" fill="#d7d8d7" /><path d="M3.73 31.89l-.02.12-.01-.09zM3.37 31.66l.11-.23-.04.1zM3.32 30.91a1.32 1.32 0 0 1 .13-.47 1.06 1.06 0 0 0 0 .5c-.05.1-.09-.13-.13-.03zM3.52 33.47l.16-.08a.25.25 0 0 0 .12-.08zM3.45 32.41a.46.46 0 0 0 .12.09v.16c-.06-.08-.08-.23-.12-.25zM3.62 32.27c0 .21 0 .24-.05.23zM3.58 30.69c0-.13 0-.26.07-.39v.47s-.08.09-.07-.08zM9.23 26.03a2.23 2.23 0 0 1 .36-.05c-.17 0-.32.12-.36.05zM3.66 30.8a.45.45 0 0 1 0 .23zM4 29.88c-.07.3-.11.2-.18.38.1-.51-.07.14-.06-.24a.46.46 0 0 1-.06.28v-.26a5.08 5.08 0 0 1 .17-.51c0 .11-.07.24-.12.49.04-.04.15-.32.25-.14zM5.73 26.78l-.08.07s-.02-.02.08-.07zM3.64 29.81v.17s-.03-.15 0-.17zM4.03 28.92v.03h-.02zM3.57 31.17a.78.78 0 0 0 .05-.14.54.54 0 0 1 0 .18zM9 26.43s-.05.06-.16 0-.17 0-.13-.07z" fill="#d7d8d7" /><path d="M.6 35.65a6.56 6.56 0 0 0 3.51-2.22 3.69 3.69 0 0 1 0-.47v-2.09a4.26 4.26 0 0 1 .17-1.18c0-.13.08-.2.08-.12l.12-.34c-.13.18-.32 0-.36-.3 0 0 .06 0 .22-.2 0 .1-.15.56 0 .39s.09-.26.13-.43c0 .14.27-.2.38-.18a4.54 4.54 0 0 1 1.39-1.37l.16-.08c.1-.16-.36.08-.18-.07a1.47 1.47 0 0 0-.79.45v.13s.12-.21.22-.24c-.15 0-.3.47-.51.49l.11-.24a1.87 1.87 0 0 0-.7.61c0-.2 0-.06.09-.33 0 .25.56-.66.47-.29.07-.28.25-.34.43-.64 0 0 0 .13.17-.06h.07l-.08.11c.16 0 .53-.24.69-.26s-.08 0 0-.09h.23c0-.1.35-.31 0-.21l.38-.11a1.4 1.4 0 0 1 .65-.22h.29a2.62 2.62 0 0 1 .56 0 6.12 6.12 0 0 0 1.6 0 2.15 2.15 0 0 0 .62 0v-.11c.22 0 .65-.08.74 0 .23-.2 1 0 1.42-.08v.1a5.69 5.69 0 0 1 .83.06v.09a7.39 7.39 0 0 0 1.15-.06h-.22c.53-.2 1.11.14 1.59 0a.48.48 0 0 0 .29 0h.39l.06-.09c.14 0 .11.05 0 .12h.18c.11-.15.36 0 .5-.11.1.08.69.06.76.23a1.09 1.09 0 0 1 .44 0l.07-.12.33.16c.2-.07.29-.11.08-.21.49.15.4.06.81.2v-.08c.15 0 .38.11.47 0a3.72 3.72 0 0 1 1-.08h1.5c-.22.18.44 0 .43.18.07 0 .2 0 .07-.12.43.19.71.17.93.46.07 0 0-.12 0-.13s.1.12.16.12 0-.07-.09-.13c.43.26.36.44.29.58.24.08.33.17.38.36.09 0 .24.07 0-.14.15.08.75.69.65.78.06 0 .14.18.15.23a2.64 2.64 0 0 1 .36.66v.02c-.07.19.08.29.16.56.27.61 0 .28.26.9h-.1c-.19.07.16.56.07.92l-.05-.13c-.07.2.28.55.3.74s0-.06 0-.12c.12.51-.12.06-.15.45.07.07.17-.09.18.16s-.2.73-.09 1.13c0-.09-.1-.17-.15 0s.09.83-.14 1v.06a2.51 2.51 0 0 1-.47.74c.1.16-.11.46-.34.69s-.47.4-.36.51a4.42 4.42 0 0 1-.53.44 1.15 1.15 0 0 1-.7.31c-.08.06 0 .05 0 .06a2.19 2.19 0 0 1-.59.3 2 2 0 0 1-.6 0v.11a2.94 2.94 0 0 0-.59.12 2.37 2.37 0 0 1-.92 0h.06c-.66-.12-1.58.27-1.83-.08l-.43-.09c.56 0-.09-.16.14-.22-.22 0-.57.11-.3.13h.05c.1.19-.71.07-.69.2-1.11 0-2.2.09-3.24.1l.12-.14h-.31c-.1 0-.13.11.13.1a.45.45 0 0 1-.44-.1c-.51.06.19.17 0 .18h-.21a1 1 0 0 0-.5-.11c-.2 0-.1.08-.18.09h-.58l.18-.12c-.2 0-.43 0-.22-.12a9.21 9.21 0 0 1-1.89.14 2.59 2.59 0 0 0-.92-.07c.09 0 .14-.15-.16-.14.11.27-.55.12-.79.31.22-.13-.85 0-.51-.21-.25 0 0 .1-.21.16a6.56 6.56 0 0 1-2.15-.36s.14 0 0-.15h-.46c-.13-.09 0-.24-.33-.29 0 0 .12 0 0-.07a3.67 3.67 0 0 1-.53-.34.71.71 0 0 0-.14-.1.25.25 0 0 0-.17 0l-.34.09-.4.09-.82.17c-.55.08-1.1.13-1.68.17.22 0 .08-.06-.08-.09.1 0 0-.09 0-.13h-.67c-.08-.15-.67-.27-.67-.43l.17.12c-.09-.14.06-.17.23-.2a3.92 3.92 0 0 1-.53-.29.29.29 0 0 1 .27-.48zm24.32-8.22v-.06a.41.41 0 0 0 0 .09.27.27 0 0 1 .08.07.59.59 0 0 1 .19.05 3.17 3.17 0 0 0-.3-.34c-.06 0-.05 0 0 .13v-.07h-.1zm-5.42-.95l-.26-.18a.28.28 0 0 1 0 .18zm-4.23-.28l-.08.07-.36-.07c.1.07.27.18.45.28h.58a1.61 1.61 0 0 0-.59-.28zm-1.22 11.84h.07c-.12-.06-.12-.06-.07 0zM13 26.49h.38a.43.43 0 0 0-.06-.27 6.59 6.59 0 0 0-.72.22v.05zm-1.52 0l-.26-.09s0 .07-.05.09zm-4.32-.26c.15-.09.08-.05 0 0zm.07.41c.32-.05.47-.19.7-.21l-.26.09a1.62 1.62 0 0 0 .44 0h1.38a1.85 1.85 0 0 0-.73-.24c-.39 0-.17.11-.24.08a2.12 2.12 0 0 1-.71-.06.77.77 0 0 0-.61.07c-.26.14 0 .18 0 .27zm-2.61 2.22a.6.6 0 0 0-.16.34.9.9 0 0 1 .11-.34z" fill="#d7d8d7" /><path d="M4.93 27.86c.05.06-.07.16-.18.3-.1-.05.03-.18.18-.3zM5.05 28.13L5 27.98h.12zM5.77 27.37h-.08c.13-.11.26-.23.27-.2zM4.72 28.19a.64.64 0 0 0-.1.13.56.56 0 0 1 .1-.13zM5.51 27.51a.94.94 0 0 1 .18-.12.94.94 0 0 1-.18.12zM3.86 29.43v-.3c0-.15.14-.15.14-.15l-.18.51zM.07 36.42c.18.18.08.17.1.21-.34-.35-.06-.22-.1-.21zM.36 36.63l-.06-.18s.12.11.18.1zM26.83 34.55c0 .07-.06.1-.07.09s.06-.11.07-.09zM16.93 25.89l-.05.09a.71.71 0 0 0-.29 0c.17-.06.41-.18.34-.09zM.83 36.9l-.25-.07h.18zM10 25.98h-.42a.61.61 0 0 1 .42 0z" fill="#d7d8d7" /><path d="M21.38 33.98A1.43 1.43 0 1 0 20 32.55a1.43 1.43 0 0 0 1.38 1.43zm-7.19-.45a1.42 1.42 0 0 0 2 0 1.42 1.42 0 0 0-1.82-2.18 1 1 0 0 0-.18.18 1.26 1.26 0 0 0-.39 1.82.3.3 0 0 0 .39.13zm-6.53 0a1.42 1.42 0 1 0 0-2 1.94 1.94 0 0 0 0 1.95zM83.06 27.3a.25.25 0 0 1 0 .17l-.09.1a.28.28 0 0 1-.18 0h-.43a1 1 0 0 1-.39-.05.49.49 0 0 0-.24 0h-.27a4.74 4.74 0 0 0-.65-.05h-.94a.8.8 0 0 0-.32.13 6.08 6.08 0 0 0-.21.6 5.77 5.77 0 0 1-.22.58 1 1 0 0 0-.1.34 1.65 1.65 0 0 1-.06.32.29.29 0 0 0 0 .13.33.33 0 0 1 0 .14.91.91 0 0 1-.11.3 1 1 0 0 0-.09.33.69.69 0 0 1-.16.36 5.22 5.22 0 0 0-.18.56 4.85 4.85 0 0 0-.09.55v.17a.29.29 0 0 1-.07.22c-.07.08-.06.25-.1.39s-.08.28-.13.42a4.73 4.73 0 0 1-.25.66 1.5 1.5 0 0 1-.16.34 2.75 2.75 0 0 0-.15.36 1.12 1.12 0 0 1-.12.67l-.31.64-.1.14v.16a.74.74 0 0 1 0 .21.35.35 0 0 1-.16.18.87.87 0 0 1-.15.46.44.44 0 0 0-.06.44v.12a3 3 0 0 1-.17.41c-.07.15-.14.3-.21.47a1.08 1.08 0 0 0-.08.19.26.26 0 0 1-.08.22 6.18 6.18 0 0 0-.27.83 6.17 6.17 0 0 0-.19.61c-.06.2-.12.4-.2.61a5.13 5.13 0 0 1-.34 1v.11a1 1 0 0 1 0 .49l-.18.49a.47.47 0 0 1-.39.31l-.33.08a.81.81 0 0 0-.3.13h-.09a.07.07 0 0 1-.09 0 .82.82 0 0 0-.44 0 3.9 3.9 0 0 0-.47.2 2.42 2.42 0 0 1-.36.1.46.46 0 0 1-.34-.08c-.12.06-.2.06-.25 0l-.11-.16a.42.42 0 0 1 0-.43.57.57 0 0 0 .06-.36.6.6 0 0 1 .07-.39.72.72 0 0 0 .13-.38 2.32 2.32 0 0 1 .06-.38 1 1 0 0 1 .11-.3 1.37 1.37 0 0 1 .07-.29.64.64 0 0 1 .09-.3v-.27c.08-.16.14-.31.19-.44a3.52 3.52 0 0 0 .15-.42 1.4 1.4 0 0 0 .06-.28 1.1 1.1 0 0 1 .06-.26v-.16a1.62 1.62 0 0 1 .1-.18l.11-.26a.94.94 0 0 1 .1-.28.21.21 0 0 0 0-.11.14.14 0 0 1 0-.1.74.74 0 0 0 .13-.21.25.25 0 0 0 0-.24v-.23c.15-.15.19-.28.11-.4a.11.11 0 0 0 0-.08.44.44 0 0 0 .13-.24 2.86 2.86 0 0 1 .07-.28.94.94 0 0 0 .14-.26l.09-.26v-.17-.14a1 1 0 0 1 .13-.16.57.57 0 0 0 .12-.18.22.22 0 0 1 0-.16v-.21a1.31 1.31 0 0 1 .09-.28 2.56 2.56 0 0 0 .11-.24.5.5 0 0 0 .09-.23v-.24a.19.19 0 0 1 .09-.14v-.13a.41.41 0 0 1 0-.22l.12-.4a.15.15 0 0 1 0-.13 1.05 1.05 0 0 0 .18-.54.31.31 0 0 1 .36-.26.61.61 0 0 1 0-.46 4.16 4.16 0 0 1 .24-.47.74.74 0 0 0 0-.21.24.24 0 0 1 .08-.2.51.51 0 0 1 .09-.41l.25-.36v-.09a.14.14 0 0 1 0-.09l.22-.12.21-.17c-.17 0-.27.05-.3 0s0-.11 0-.25a1.18 1.18 0 0 1 .07-.2.4.4 0 0 1 .09.11c0 .06 0 0 .07 0a.76.76 0 0 0 .21-.19v-.2a.41.41 0 0 1 0-.19.25.25 0 0 1 .1-.21.63.63 0 0 0 .08-.23 1 1 0 0 1 0-.25h-.11c-.07.08-.11.11-.13.1a.21.21 0 0 0-.19 0 .22.22 0 0 1-.15-.06h-.03c-.06 0-.22.16-.3.12a.55.55 0 0 0-.28-.07 1.11 1.11 0 0 0-.66 0l-.25.09a.25.25 0 0 1-.25-.05.26.26 0 0 1-.27 0 .37.37 0 0 0-.29 0 .21.21 0 0 1-.13.05.13.13 0 0 1 0-.16.1.1 0 0 1-.12-.09v-.05a1.36 1.36 0 0 1 .06-.29.14.14 0 0 0 0-.09.14.14 0 0 1 0-.09.53.53 0 0 1 .07-.28.69.69 0 0 0 .18-.43 1.58 1.58 0 0 0 0-.38.43.43 0 0 0 0-.16.43.43 0 0 0 0-.16 1.14 1.14 0 0 1 .1-.36 1.59 1.59 0 0 1 .15-.29 1.18 1.18 0 0 0 .19-.11l.17-.14h.07c0 .1 0 .13.08.09s.12-.05.15 0 0 0 .1 0h.14a.66.66 0 0 0 .28 0 .53.53 0 0 1 .25 0h.13s.1-.1.12-.09l.11.07c0 .09 0 .07.06 0a.27.27 0 0 0 .32 0 .35.35 0 0 1 .2-.1h.16a.13.13 0 0 1 .14.09q0 .18.18 0a.07.07 0 0 1-.07-.06h.64v.2a.36.36 0 0 1 .17.07v-.11a.14.14 0 0 1 0-.09.49.49 0 0 1 .24 0v.15h.13a.15.15 0 0 1 .13 0h.1a.11.11 0 0 0 .08 0h.08c0-.08.08-.12.12-.13H79v.2a1.34 1.34 0 0 0 .07-.18c0 .09 0 .14.11.14s.08.05 0 .15a.11.11 0 0 1 .08 0l.08-.09c.08-.09 0-.07.07-.06h.06l.12-.16h.44a.53.53 0 0 1 .25 0 .89.89 0 0 0 .23 0 .22.22 0 0 1 .16.11c.08.11.17.08.29-.13a.49.49 0 0 1 .12.13.1.1 0 0 0 .13 0 .57.57 0 0 0 .16-.11c.17-.12.31-.12.43 0a.19.19 0 0 0 .26.1.39.39 0 0 1 .21-.06.31.31 0 0 1 .13.06.72.72 0 0 0 .59.09.45.45 0 0 1 .28 0l.24.11a1.41 1.41 0 0 1 0 .29.65.65 0 0 1-.21.28v.05a.62.62 0 0 1-.5 0H82s-.07 0-.1-.1a.22.22 0 0 0-.13-.08.23.23 0 0 0-.19.12.32.32 0 0 1-.23.07 1 1 0 0 0-.43.2h.21a.16.16 0 0 1 .13.08.16.16 0 0 0 .11.05h.14a.45.45 0 0 0 .23 0 .24.24 0 0 1 0 .12v.11a.15.15 0 0 0 .16 0h.2a.44.44 0 0 0-.14-.09.54.54 0 0 1 .21-.08h.16l.19-.07.19-.07a.36.36 0 0 1 .29.02.88.88 0 0 1 .27.1v.07a.29.29 0 0 1 0 .13 5.77 5.77 0 0 1-.21 1.02zm-5.13 5.47l-.05.05v-.05zm2.26-6.92h.59v-.05a2.6 2.6 0 0 0-.56-.06.08.08 0 0 1 0 .09.07.07 0 0 1-.09 0zm.34.13a.62.62 0 0 0 .27 0zm1.67.28c0 .1.08.1.19 0z" /><g fill="#d7d8d7"><path d="M90.79 9.11l-.21-.13a.4.4 0 0 1 .15.19s0-.12.06-.06zM91.45 9.96l-.12-.1.04.13zM89.51 8.2c.13-.05-.58-.14-.13 0 .07.07.1-.05.13 0zM89.76 8.35l-.14-.08.16.11zM91.77 10.5l-.23-.17.12.15zM92.73 15.34l-.1-.1c0 .07-.15-.07.12.13zM91.92 13.67a.69.69 0 0 0-.21.24.17.17 0 0 1 0 .17c0 .1 0 0-.06 0s.06.24.1 0a.88.88 0 0 1 .17-.41zM92 14.5c0-.14-.1-.42-.17-.14.08.09.17-.06.17.14zM92.07 13.9l-.07-.27v.25s0-.05.07.02zM91.87 12.8a.93.93 0 0 0-.06-.4l-.06.21c.03.21.08.16.12.19zM93.68 16.39v.05l.16-.05a3 3 0 0 1-.84-.41c.06.17.47.25.68.41zM94.33 16.63l-.24-.02.2.04zM92.73 15.34c.12.09 0-.1 0 0zM93.12 16.18c-.07 0-.22-.19-.24-.16l.1.13zM92.33 15.22c.29.25.31.14 0-.11.08.1.17.22 0 .11zM92.11 13.49s.07 0 .08-.18l-.08.09zM92.34 14.85a.1.1 0 0 0-.09.06l.15.09s-.12-.18-.06-.15zM91.98 13.51l.03.12v-.09zM92.34 13.28l-.11-.24.04.11zM92.38 12.53a1.56 1.56 0 0 0-.14-.48 1.1 1.1 0 0 1 0 .51c.06.1.1-.14.14-.03zM92.21 15.09l-.15-.11-.13-.07c.12.12.16.07.28.18zM92.27 14.03l-.11.09v.16c.05-.08.07-.24.11-.25zM92.1 13.89c0 .21 0 .24.06.23zM92.12 12.31a2.7 2.7 0 0 1-.08-.39v.47s.09.09.08-.08zM86.4 7.73H86c.21 0 .35.07.4 0zM92 12.42a.45.45 0 0 0 0 .23zM91.73 11.5c.07.3.11.2.18.38-.1-.5.07.14.06-.24a.41.41 0 0 0 .07.28v-.26a3 3 0 0 0-.17-.5 4.6 4.6 0 0 0 .12.48c-.1-.07-.21-.31-.26-.14zM89.9 8.43l.09.07s.01-.02-.09-.07z" /><path d="M92 11.43v.21c.05-.06.07-.19 0-.21zM91.64 10.55v.02h.02zM92.13 12.79a.35.35 0 0 0-.06-.14.54.54 0 0 0 0 .18h.06zM86.64 8.13s0 .06.16 0 .18 0 .13-.07z" /><path d="M95.17 17.23a6.57 6.57 0 0 1-3.55-2.17 3.69 3.69 0 0 0 0-.47V12.5a4.69 4.69 0 0 0-.19-1.18c0-.13-.09-.2-.08-.12a1.09 1.09 0 0 0-.13-.34c.13.18.32 0 .36-.31 0 0-.06 0-.22-.19 0 .1.15.56 0 .39s-.1-.26-.13-.43c0 .15-.28-.19-.39-.17a4.4 4.4 0 0 0-1.4-1.35l-.17-.08c-.11-.16.36.08.18-.08a1.54 1.54 0 0 1 .79.45v.13s-.08-.24-.19-.24c.16 0 .31.47.52.48l-.11-.24a1.87 1.87 0 0 1 .71.6c0-.19-.06-.05-.09-.33 0 .26-.58-.65-.49-.27-.06-.28-.25-.35-.43-.64 0 0 0 .13-.17-.06h-.07a.57.57 0 0 1 .08.13c-.16 0-.54-.23-.69-.25s.08 0 0-.09h-.23c0-.1-.36-.3 0-.2l-.29-.13a1.39 1.39 0 0 0-.65-.21h-.85a6.12 6.12 0 0 1-1.6 0 3.21 3.21 0 0 1-.62 0l-.07-.1c-.21 0-.64-.07-.74 0-.23-.2-1 0-1.42-.06v.1a4.57 4.57 0 0 0-.84.07v.09a11.22 11.22 0 0 1-1.16 0h.22c-.53-.19-1.11.16-1.58 0a.48.48 0 0 1-.29 0H79a.33.33 0 0 0 .14 0h-.34v-.09c-.13 0-.1 0 0 .12a.46.46 0 0 0-.3.08c-.11-.16-.36.05-.51-.11-.09.08-.68.07-.75.24a1.09 1.09 0 0 0-.44 0v-.13l-.33.17c-.2-.07-.29-.12-.09-.21-.48.15-.39.06-.8.2v-.07c-.15 0-.38.11-.47 0a3.37 3.37 0 0 0-1-.06h-1.5c.22.18-.44 0-.43.18-.07 0-.2 0-.07-.11-.43.2-.71.18-.92.47-.07 0 0-.12 0-.12s-.11.12-.17.12 0-.08.09-.14c-.42.27-.35.44-.28.59a.49.49 0 0 0-.37.36c-.1 0-.24.08 0-.14-.15.08-.75.7-.64.8-.06 0-.14.18-.14.22a2.89 2.89 0 0 0-.36.67l.06-.08c.08.18-.07.29-.15.56-.26.62 0 .28-.24.91h.1c.19.07-.15.57-.06.93v-.13c.08.19-.27.55-.29.74s0-.06 0-.12c-.11.51.12.06.16.44-.07.08-.17-.08-.18.17s.21.73.11 1.13c0-.09.09-.18.15 0s-.08.83.15 1v.06a2.21 2.21 0 0 0 .48.73c-.1.17.11.47.35.69s.47.39.36.5a2.88 2.88 0 0 0 .54.44 1.08 1.08 0 0 0 .7.29c.09.06 0 .06 0 .07a1.83 1.83 0 0 0 .6.28 2 2 0 0 0 .6 0v.11a2.94 2.94 0 0 1 .59.12 2.43 2.43 0 0 0 .93 0 .18.18 0 0 1-.07.05c.67-.13 1.59.25 1.83-.11l.44-.1c-.57 0 .08-.15-.15-.21.22 0 .57.1.3.12-.1.18.7.05.69.18 1.11 0 2.19.06 3.23.06l-.12-.14h.37c.09 0 .13.11-.13.11.13.08.43-.08.44-.11.51.05-.2.17 0 .17h.21a.88.88 0 0 1 .5-.12c.19 0 .1.09.18.1h.57l-.18-.11c.2-.06.43 0 .22-.12a9.29 9.29 0 0 0 1.9.11 2.79 2.79 0 0 1 .91-.09c-.09 0-.14-.15.16-.14-.11.27.55.11.79.3-.22-.13.85 0 .51-.22.25 0 0 .1.21.16a6.77 6.77 0 0 0 2-.29s-.14 0 0-.15a3.38 3.38 0 0 0 .45 0c.13-.1 0-.24.33-.29 0 0-.12 0 0-.08a3.67 3.67 0 0 0 .53-.34.45.45 0 0 1 .14-.1h.17l.34.08.4.08a8.11 8.11 0 0 1 .82.12c.55.06 1.1.11 1.68.13-.22 0-.08 0 .08-.09-.1 0 0-.08 0-.12a3.86 3.86 0 0 0 .68 0c.07-.14.67-.28.66-.44l-.17.12c.09-.13-.06-.16-.23-.19a4 4 0 0 0 .53-.3.29.29 0 0 0 .15-.39.29.29 0 0 0-.48-.16zM70.73 9.37v-.06l-.06.09-.07.06-.19.06a2.43 2.43 0 0 1 .3-.34v.05h.1zm5.4-1l.26-.17a.25.25 0 0 0 0 .17zm4.22-.39l.09.06.35-.06a4.27 4.27 0 0 1-.44.3h-.57a1.36 1.36 0 0 1 .57-.3zm1.41 11.81h-.08.08zm.92-11.56h-.38a.42.42 0 0 1 0-.27 4.27 4.27 0 0 1 .72.21zm1.52 0a1.14 1.14 0 0 1 .26-.09.09.09 0 0 0 .06.08zm4.25.08c-.32 0-.47-.18-.7-.2l.27.09a1.09 1.09 0 0 1-.44 0h-1.39a1.74 1.74 0 0 1 .7-.22c.4 0 .18.1.25.08a2.13 2.13 0 0 0 .71-.08.73.73 0 0 1 .61.07c.23.13-.04.17-.01.26zm2.6 2.18a.61.61 0 0 1 .17.34z" /><path d="M90.72 9.5c0 .06.07.16.19.3.09-.05-.04-.19-.19-.3zM90.61 9.77v-.11h-.13zM89.88 8.98H90c-.13-.1-.27-.23-.28-.2zM90.94 9.83l.06.15a.23.23 0 0 0-.06-.15zM90.14 9.16L90 9.04zM91.82 11.05v.11a2.67 2.67 0 0 1 0-.4c-.1-.17-.14-.19-.18-.19.07.17.13.34.19.52zM95.71 17.98c-.18.19-.07.18-.09.22.32-.35.05-.22.09-.22zM95.42 18.2l.06-.18s-.12.11-.18.11zM68.92 16.51c0 .07.06.1.08.09s-.06-.11-.08-.09zM78.69 7.71l.06.09a.66.66 0 0 1 .28 0c-.17-.07-.36-.18-.34-.09zM93.85 18.7a.81.81 0 0 0 .22 0 .81.81 0 0 1-.22 0zM95 18.48l.25-.07H95zM85.61 7.69H86a.61.61 0 0 0-.39 0z" /></g><path d="M74.36 15.81a1.42 1.42 0 1 1 1.4-1.44 1.43 1.43 0 0 1-1.4 1.44zm7.19-.55a1.42 1.42 0 1 1 0-2 1.42 1.42 0 0 1 0 2zm6.53-.1a1.42 1.42 0 1 1 0-2 1.44 1.44 0 0 1 0 2z" /><path d="M106.05 41.54v1.78h-.22v-1.78h-.59v-.19h1.4v.19zM108.56 43.32v-1.8l-.55 1.8h-.17l-.55-1.8v1.8h-.2v-2h.34l.5 1.59.49-1.59h.35v2z" fill="#fff" /></svg>